%TF.GenerationSoftware,KiCad,Pcbnew,(6.0.10)*%
%TF.CreationDate,2022-12-26T18:21:33+01:00*%
%TF.ProjectId,AdapterBoard,41646170-7465-4724-926f-6172642e6b69,rev?*%
%TF.SameCoordinates,PX1360f00PY4fefde0*%
%TF.FileFunction,Soldermask,Top*%
%TF.FilePolarity,Negative*%
%FSLAX46Y46*%
G04 Gerber Fmt 4.6, Leading zero omitted, Abs format (unit mm)*
G04 Created by KiCad (PCBNEW (6.0.10)) date 2022-12-26 18:21:33*
%MOMM*%
%LPD*%
G01*
G04 APERTURE LIST*
%ADD10R,1.700000X1.700000*%
%ADD11O,1.700000X1.700000*%
G04 APERTURE END LIST*
D10*
%TO.C,X4*%
X134620000Y-33020000D03*
D11*
X134620000Y-30480000D03*
X137160000Y-33020000D03*
X137160000Y-30480000D03*
X139700000Y-33020000D03*
X139700000Y-30480000D03*
X142240000Y-33020000D03*
X142240000Y-30480000D03*
X144780000Y-33020000D03*
X144780000Y-30480000D03*
X147320000Y-33020000D03*
X147320000Y-30480000D03*
X149860000Y-33020000D03*
X149860000Y-30480000D03*
X152400000Y-33020000D03*
X152400000Y-30480000D03*
X154940000Y-33020000D03*
X154940000Y-30480000D03*
X157480000Y-33020000D03*
X157480000Y-30480000D03*
%TD*%
D10*
%TO.C,X5*%
X10160000Y-33020000D03*
D11*
X10160000Y-30480000D03*
X12700000Y-33020000D03*
X12700000Y-30480000D03*
X15240000Y-33020000D03*
X15240000Y-30480000D03*
X17780000Y-33020000D03*
X17780000Y-30480000D03*
X20320000Y-33020000D03*
X20320000Y-30480000D03*
X22860000Y-33020000D03*
X22860000Y-30480000D03*
X25400000Y-33020000D03*
X25400000Y-30480000D03*
X27940000Y-33020000D03*
X27940000Y-30480000D03*
X30480000Y-33020000D03*
X30480000Y-30480000D03*
X33020000Y-33020000D03*
X33020000Y-30480000D03*
%TD*%
D10*
%TO.C,X2*%
X96520000Y-10160000D03*
D11*
X93980000Y-10160000D03*
%TD*%
D10*
%TO.C,X1*%
X134620000Y-16510000D03*
D11*
X134620000Y-13970000D03*
X137160000Y-16510000D03*
X137160000Y-13970000D03*
X139700000Y-16510000D03*
X139700000Y-13970000D03*
X142240000Y-16510000D03*
X142240000Y-13970000D03*
X144780000Y-16510000D03*
X144780000Y-13970000D03*
X147320000Y-16510000D03*
X147320000Y-13970000D03*
X149860000Y-16510000D03*
X149860000Y-13970000D03*
X152400000Y-16510000D03*
X152400000Y-13970000D03*
X154940000Y-16510000D03*
X154940000Y-13970000D03*
X157480000Y-16510000D03*
X157480000Y-13970000D03*
%TD*%
D10*
%TO.C,X3*%
X259080000Y-33020000D03*
D11*
X259080000Y-30480000D03*
X261620000Y-33020000D03*
X261620000Y-30480000D03*
X264160000Y-33020000D03*
X264160000Y-30480000D03*
X266700000Y-33020000D03*
X266700000Y-30480000D03*
X269240000Y-33020000D03*
X269240000Y-30480000D03*
X271780000Y-33020000D03*
X271780000Y-30480000D03*
X274320000Y-33020000D03*
X274320000Y-30480000D03*
X276860000Y-33020000D03*
X276860000Y-30480000D03*
X279400000Y-33020000D03*
X279400000Y-30480000D03*
X281940000Y-33020000D03*
X281940000Y-30480000D03*
%TD*%
M02*
