%TF.GenerationSoftware,KiCad,Pcbnew,(6.0.10)*%
%TF.CreationDate,2022-12-26T18:21:32+01:00*%
%TF.ProjectId,AdapterBoard,41646170-7465-4724-926f-6172642e6b69,rev?*%
%TF.SameCoordinates,PX1360f00PY4fefde0*%
%TF.FileFunction,Copper,L1,Top*%
%TF.FilePolarity,Positive*%
%FSLAX46Y46*%
G04 Gerber Fmt 4.6, Leading zero omitted, Abs format (unit mm)*
G04 Created by KiCad (PCBNEW (6.0.10)) date 2022-12-26 18:21:32*
%MOMM*%
%LPD*%
G01*
G04 APERTURE LIST*
%TA.AperFunction,ComponentPad*%
%ADD10R,1.700000X1.700000*%
%TD*%
%TA.AperFunction,ComponentPad*%
%ADD11O,1.700000X1.700000*%
%TD*%
%TA.AperFunction,Conductor*%
%ADD12C,0.250000*%
%TD*%
G04 APERTURE END LIST*
D10*
%TO.P,X4,1,1*%
%TO.N,/A6*%
X134620000Y-33020000D03*
D11*
%TO.P,X4,2,2*%
%TO.N,unconnected-(X4-Pad2)*%
X134620000Y-30480000D03*
%TO.P,X4,3,3*%
%TO.N,/A5*%
X137160000Y-33020000D03*
%TO.P,X4,4,4*%
%TO.N,/CS1*%
X137160000Y-30480000D03*
%TO.P,X4,5,5*%
%TO.N,/A4*%
X139700000Y-33020000D03*
%TO.P,X4,6,6*%
%TO.N,/D7*%
X139700000Y-30480000D03*
%TO.P,X4,7,7*%
%TO.N,/A3*%
X142240000Y-33020000D03*
%TO.P,X4,8,8*%
%TO.N,/D6*%
X142240000Y-30480000D03*
%TO.P,X4,9,9*%
%TO.N,/A2*%
X144780000Y-33020000D03*
%TO.P,X4,10,10*%
%TO.N,/D5*%
X144780000Y-30480000D03*
%TO.P,X4,11,11*%
%TO.N,/A1*%
X147320000Y-33020000D03*
%TO.P,X4,12,12*%
%TO.N,/D4*%
X147320000Y-30480000D03*
%TO.P,X4,13,13*%
%TO.N,/A0*%
X149860000Y-33020000D03*
%TO.P,X4,14,14*%
%TO.N,/D3*%
X149860000Y-30480000D03*
%TO.P,X4,15,15*%
%TO.N,unconnected-(X4-Pad15)*%
X152400000Y-33020000D03*
%TO.P,X4,16,16*%
%TO.N,/D2*%
X152400000Y-30480000D03*
%TO.P,X4,17,17*%
%TO.N,GND*%
X154940000Y-33020000D03*
%TO.P,X4,18,18*%
%TO.N,/D1*%
X154940000Y-30480000D03*
%TO.P,X4,19,19*%
%TO.N,GND*%
X157480000Y-33020000D03*
%TO.P,X4,20,20*%
%TO.N,/D0*%
X157480000Y-30480000D03*
%TD*%
D10*
%TO.P,X5,1,1*%
%TO.N,/A6*%
X10160000Y-33020000D03*
D11*
%TO.P,X5,2,2*%
%TO.N,unconnected-(X5-Pad2)*%
X10160000Y-30480000D03*
%TO.P,X5,3,3*%
%TO.N,/A5*%
X12700000Y-33020000D03*
%TO.P,X5,4,4*%
%TO.N,/CS2*%
X12700000Y-30480000D03*
%TO.P,X5,5,5*%
%TO.N,/A4*%
X15240000Y-33020000D03*
%TO.P,X5,6,6*%
%TO.N,/D7*%
X15240000Y-30480000D03*
%TO.P,X5,7,7*%
%TO.N,/A3*%
X17780000Y-33020000D03*
%TO.P,X5,8,8*%
%TO.N,/D6*%
X17780000Y-30480000D03*
%TO.P,X5,9,9*%
%TO.N,/A2*%
X20320000Y-33020000D03*
%TO.P,X5,10,10*%
%TO.N,/D5*%
X20320000Y-30480000D03*
%TO.P,X5,11,11*%
%TO.N,/A1*%
X22860000Y-33020000D03*
%TO.P,X5,12,12*%
%TO.N,/D4*%
X22860000Y-30480000D03*
%TO.P,X5,13,13*%
%TO.N,/A0*%
X25400000Y-33020000D03*
%TO.P,X5,14,14*%
%TO.N,/D3*%
X25400000Y-30480000D03*
%TO.P,X5,15,15*%
%TO.N,unconnected-(X5-Pad15)*%
X27940000Y-33020000D03*
%TO.P,X5,16,16*%
%TO.N,/D2*%
X27940000Y-30480000D03*
%TO.P,X5,17,17*%
%TO.N,GND*%
X30480000Y-33020000D03*
%TO.P,X5,18,18*%
%TO.N,/D1*%
X30480000Y-30480000D03*
%TO.P,X5,19,19*%
%TO.N,GND*%
X33020000Y-33020000D03*
%TO.P,X5,20,20*%
%TO.N,/D0*%
X33020000Y-30480000D03*
%TD*%
D10*
%TO.P,X2,1,1*%
%TO.N,/CS1*%
X96520000Y-10160000D03*
D11*
%TO.P,X2,2,2*%
%TO.N,/CS2*%
X93980000Y-10160000D03*
%TD*%
D10*
%TO.P,X1,1,1*%
%TO.N,/A6*%
X134620000Y-16510000D03*
D11*
%TO.P,X1,2,2*%
%TO.N,unconnected-(X1-Pad2)*%
X134620000Y-13970000D03*
%TO.P,X1,3,3*%
%TO.N,/A5*%
X137160000Y-16510000D03*
%TO.P,X1,4,4*%
%TO.N,/CS0*%
X137160000Y-13970000D03*
%TO.P,X1,5,5*%
%TO.N,/A4*%
X139700000Y-16510000D03*
%TO.P,X1,6,6*%
%TO.N,/D7*%
X139700000Y-13970000D03*
%TO.P,X1,7,7*%
%TO.N,/A3*%
X142240000Y-16510000D03*
%TO.P,X1,8,8*%
%TO.N,/D6*%
X142240000Y-13970000D03*
%TO.P,X1,9,9*%
%TO.N,/A2*%
X144780000Y-16510000D03*
%TO.P,X1,10,10*%
%TO.N,/D5*%
X144780000Y-13970000D03*
%TO.P,X1,11,11*%
%TO.N,/A1*%
X147320000Y-16510000D03*
%TO.P,X1,12,12*%
%TO.N,/D4*%
X147320000Y-13970000D03*
%TO.P,X1,13,13*%
%TO.N,/A0*%
X149860000Y-16510000D03*
%TO.P,X1,14,14*%
%TO.N,/D3*%
X149860000Y-13970000D03*
%TO.P,X1,15,15*%
%TO.N,unconnected-(X1-Pad15)*%
X152400000Y-16510000D03*
%TO.P,X1,16,16*%
%TO.N,/D2*%
X152400000Y-13970000D03*
%TO.P,X1,17,17*%
%TO.N,GND*%
X154940000Y-16510000D03*
%TO.P,X1,18,18*%
%TO.N,/D1*%
X154940000Y-13970000D03*
%TO.P,X1,19,19*%
%TO.N,GND*%
X157480000Y-16510000D03*
%TO.P,X1,20,20*%
%TO.N,/D0*%
X157480000Y-13970000D03*
%TD*%
D10*
%TO.P,X3,1,1*%
%TO.N,/A6*%
X259080000Y-33020000D03*
D11*
%TO.P,X3,2,2*%
%TO.N,unconnected-(X3-Pad2)*%
X259080000Y-30480000D03*
%TO.P,X3,3,3*%
%TO.N,/A5*%
X261620000Y-33020000D03*
%TO.P,X3,4,4*%
%TO.N,/CS0*%
X261620000Y-30480000D03*
%TO.P,X3,5,5*%
%TO.N,/A4*%
X264160000Y-33020000D03*
%TO.P,X3,6,6*%
%TO.N,/D7*%
X264160000Y-30480000D03*
%TO.P,X3,7,7*%
%TO.N,/A3*%
X266700000Y-33020000D03*
%TO.P,X3,8,8*%
%TO.N,/D6*%
X266700000Y-30480000D03*
%TO.P,X3,9,9*%
%TO.N,/A2*%
X269240000Y-33020000D03*
%TO.P,X3,10,10*%
%TO.N,/D5*%
X269240000Y-30480000D03*
%TO.P,X3,11,11*%
%TO.N,/A1*%
X271780000Y-33020000D03*
%TO.P,X3,12,12*%
%TO.N,/D4*%
X271780000Y-30480000D03*
%TO.P,X3,13,13*%
%TO.N,/A0*%
X274320000Y-33020000D03*
%TO.P,X3,14,14*%
%TO.N,/D3*%
X274320000Y-30480000D03*
%TO.P,X3,15,15*%
%TO.N,unconnected-(X3-Pad15)*%
X276860000Y-33020000D03*
%TO.P,X3,16,16*%
%TO.N,/D2*%
X276860000Y-30480000D03*
%TO.P,X3,17,17*%
%TO.N,GND*%
X279400000Y-33020000D03*
%TO.P,X3,18,18*%
%TO.N,/D1*%
X279400000Y-30480000D03*
%TO.P,X3,19,19*%
%TO.N,GND*%
X281940000Y-33020000D03*
%TO.P,X3,20,20*%
%TO.N,/D0*%
X281940000Y-30480000D03*
%TD*%
D12*
%TO.N,/CS0*%
X256635000Y-31655000D02*
X260445000Y-31655000D01*
X256445000Y-31655000D02*
X256635000Y-31655000D01*
X163830000Y-3810000D02*
X228600000Y-3810000D01*
X256445000Y-31655000D02*
X228600000Y-3810000D01*
X260445000Y-31655000D02*
X261620000Y-30480000D01*
X137160000Y-13970000D02*
X147320000Y-3810000D01*
X147320000Y-3810000D02*
X163830000Y-3810000D01*
%TO.N,/D7*%
X138430000Y-34776701D02*
X137646701Y-35560000D01*
X264050213Y-30370213D02*
X262890000Y-31530426D01*
X139590213Y-30370213D02*
X138430000Y-31530426D01*
X138335000Y-29115000D02*
X139700000Y-30480000D01*
X138335000Y-15335000D02*
X138335000Y-29115000D01*
X262890000Y-31530426D02*
X262890000Y-34776701D01*
X138430000Y-31530426D02*
X138430000Y-34776701D01*
X137646701Y-35560000D02*
X133350000Y-35560000D01*
X116840000Y-19050000D02*
X26670000Y-19050000D01*
X138335000Y-29115000D02*
X139590213Y-30370213D01*
X139700000Y-13970000D02*
X148590000Y-5080000D01*
X262106701Y-35560000D02*
X257810000Y-35560000D01*
X139700000Y-13970000D02*
X138335000Y-15335000D01*
X227330000Y-5080000D02*
X257810000Y-35560000D01*
X262890000Y-34776701D02*
X262106701Y-35560000D01*
X26670000Y-19050000D02*
X15240000Y-30480000D01*
X133350000Y-35560000D02*
X116840000Y-19050000D01*
X148590000Y-5080000D02*
X227330000Y-5080000D01*
%TO.N,/D6*%
X138430000Y-36830000D02*
X132080000Y-36830000D01*
X140875000Y-29115000D02*
X142240000Y-30480000D01*
X142240000Y-30480000D02*
X140970000Y-31750000D01*
X140875000Y-15335000D02*
X140875000Y-29115000D01*
X142240000Y-13970000D02*
X149860000Y-6350000D01*
X132080000Y-36830000D02*
X115570000Y-20320000D01*
X140970000Y-31750000D02*
X140970000Y-34290000D01*
X226060000Y-6350000D02*
X256540000Y-36830000D01*
X262890000Y-36830000D02*
X265430000Y-34290000D01*
X265430000Y-34290000D02*
X265430000Y-31750000D01*
X256540000Y-36830000D02*
X262890000Y-36830000D01*
X265430000Y-31750000D02*
X266700000Y-30480000D01*
X142240000Y-13970000D02*
X140875000Y-15335000D01*
X140970000Y-34290000D02*
X138430000Y-36830000D01*
X149860000Y-6350000D02*
X226060000Y-6350000D01*
X27940000Y-20320000D02*
X17780000Y-30480000D01*
X115570000Y-20320000D02*
X27940000Y-20320000D01*
%TO.N,/D5*%
X143510000Y-31750000D02*
X143510000Y-34290000D01*
X161290000Y-7620000D02*
X163830000Y-7620000D01*
X144780000Y-30480000D02*
X143510000Y-31750000D01*
X163830000Y-7620000D02*
X224790000Y-7620000D01*
X143510000Y-34290000D02*
X139700000Y-38100000D01*
X144780000Y-13970000D02*
X143415000Y-15335000D01*
X143415000Y-29115000D02*
X144780000Y-30480000D01*
X39370000Y-21590000D02*
X110490000Y-21590000D01*
X144780000Y-13970000D02*
X151130000Y-7620000D01*
X267970000Y-31750000D02*
X267970000Y-34290000D01*
X133350000Y-38100000D02*
X130810000Y-38100000D01*
X151130000Y-7620000D02*
X161290000Y-7620000D01*
X130810000Y-38100000D02*
X114300000Y-21590000D01*
X139700000Y-38100000D02*
X133350000Y-38100000D01*
X20320000Y-30480000D02*
X29210000Y-21590000D01*
X267970000Y-34290000D02*
X264160000Y-38100000D01*
X264160000Y-38100000D02*
X257810000Y-38100000D01*
X114300000Y-21590000D02*
X110490000Y-21590000D01*
X143415000Y-15335000D02*
X143415000Y-29115000D01*
X257810000Y-38100000D02*
X255270000Y-38100000D01*
X29210000Y-21590000D02*
X39370000Y-21590000D01*
X269240000Y-30480000D02*
X267970000Y-31750000D01*
X224790000Y-7620000D02*
X255270000Y-38100000D01*
%TO.N,/D4*%
X140970000Y-39370000D02*
X133350000Y-39370000D01*
X30480000Y-22860000D02*
X39370000Y-22860000D01*
X129540000Y-39370000D02*
X113030000Y-22860000D01*
X254000000Y-39370000D02*
X223520000Y-8890000D01*
X152400000Y-8890000D02*
X163830000Y-8890000D01*
X147320000Y-13970000D02*
X152400000Y-8890000D01*
X22860000Y-30480000D02*
X30480000Y-22860000D01*
X270510000Y-34290000D02*
X265430000Y-39370000D01*
X271780000Y-30480000D02*
X270510000Y-31750000D01*
X257810000Y-39370000D02*
X254000000Y-39370000D01*
X113030000Y-22860000D02*
X110490000Y-22860000D01*
X39370000Y-22860000D02*
X110490000Y-22860000D01*
X147320000Y-30480000D02*
X146050000Y-31750000D01*
X163830000Y-8890000D02*
X223520000Y-8890000D01*
X270510000Y-31750000D02*
X270510000Y-34290000D01*
X133350000Y-39370000D02*
X129540000Y-39370000D01*
X147320000Y-13970000D02*
X145955000Y-15335000D01*
X146050000Y-31750000D02*
X146050000Y-34290000D01*
X146050000Y-34290000D02*
X140970000Y-39370000D01*
X145955000Y-29115000D02*
X147320000Y-30480000D01*
X265430000Y-39370000D02*
X257810000Y-39370000D01*
X145955000Y-15335000D02*
X145955000Y-29115000D01*
%TO.N,/D3*%
X273050000Y-34290000D02*
X273050000Y-31750000D01*
X222250000Y-10160000D02*
X252730000Y-40640000D01*
X149860000Y-13970000D02*
X148495000Y-15335000D01*
X142240000Y-40640000D02*
X128270000Y-40640000D01*
X128270000Y-40640000D02*
X111760000Y-24130000D01*
X149860000Y-30480000D02*
X148590000Y-31750000D01*
X111760000Y-24130000D02*
X31750000Y-24130000D01*
X273050000Y-31750000D02*
X274320000Y-30480000D01*
X148590000Y-34290000D02*
X142240000Y-40640000D01*
X266700000Y-40640000D02*
X273050000Y-34290000D01*
X252730000Y-40640000D02*
X266700000Y-40640000D01*
X148495000Y-29115000D02*
X149860000Y-30480000D01*
X153670000Y-10160000D02*
X222250000Y-10160000D01*
X148495000Y-15335000D02*
X148495000Y-29115000D01*
X149860000Y-13970000D02*
X153670000Y-10160000D01*
X31750000Y-24130000D02*
X25400000Y-30480000D01*
X148590000Y-31750000D02*
X148590000Y-34290000D01*
%TO.N,/D2*%
X267970000Y-41910000D02*
X275590000Y-34290000D01*
X154940000Y-11430000D02*
X220980000Y-11430000D01*
X33020000Y-25400000D02*
X39370000Y-25400000D01*
X251460000Y-41910000D02*
X267970000Y-41910000D01*
X151130000Y-34290000D02*
X143510000Y-41910000D01*
X275590000Y-31750000D02*
X276860000Y-30480000D01*
X27940000Y-30480000D02*
X33020000Y-25400000D01*
X151130000Y-31750000D02*
X151130000Y-34290000D01*
X151035000Y-29115000D02*
X152400000Y-30480000D01*
X127000000Y-41910000D02*
X110490000Y-25400000D01*
X152400000Y-13970000D02*
X154940000Y-11430000D01*
X151035000Y-15335000D02*
X151035000Y-29115000D01*
X152400000Y-30480000D02*
X151130000Y-31750000D01*
X143510000Y-41910000D02*
X127000000Y-41910000D01*
X220980000Y-11430000D02*
X251460000Y-41910000D01*
X152400000Y-13970000D02*
X151035000Y-15335000D01*
X39370000Y-25400000D02*
X110490000Y-25400000D01*
X275590000Y-34290000D02*
X275590000Y-31750000D01*
%TO.N,/D1*%
X154940000Y-13970000D02*
X153575000Y-15335000D01*
X153670000Y-34290000D02*
X144905000Y-43055000D01*
X278130000Y-31750000D02*
X279400000Y-30480000D01*
X278130000Y-34290000D02*
X278130000Y-31750000D01*
X125605000Y-43055000D02*
X109220000Y-26670000D01*
X125730000Y-43055000D02*
X125605000Y-43055000D01*
X153670000Y-31750000D02*
X153670000Y-34290000D01*
X144905000Y-43055000D02*
X125730000Y-43055000D01*
X30480000Y-30480000D02*
X34290000Y-26670000D01*
X156210000Y-12700000D02*
X219710000Y-12700000D01*
X250065000Y-43055000D02*
X269365000Y-43055000D01*
X153575000Y-29115000D02*
X154940000Y-30480000D01*
X219710000Y-12700000D02*
X250065000Y-43055000D01*
X269365000Y-43055000D02*
X278130000Y-34290000D01*
X153575000Y-15335000D02*
X153575000Y-29115000D01*
X34290000Y-26670000D02*
X109220000Y-26670000D01*
X154940000Y-30480000D02*
X153670000Y-31750000D01*
X154940000Y-13970000D02*
X156210000Y-12700000D01*
%TO.N,/D0*%
X157480000Y-30480000D02*
X156210000Y-31750000D01*
X156210000Y-31750000D02*
X156210000Y-34290000D01*
X218440000Y-13970000D02*
X157480000Y-13970000D01*
X157480000Y-13970000D02*
X156115000Y-15335000D01*
X248920000Y-44450000D02*
X218440000Y-13970000D01*
X35560000Y-27940000D02*
X107950000Y-27940000D01*
X281940000Y-30480000D02*
X280670000Y-31750000D01*
X156115000Y-29115000D02*
X157480000Y-30480000D01*
X156210000Y-34290000D02*
X146050000Y-44450000D01*
X280670000Y-31750000D02*
X280670000Y-34290000D01*
X270510000Y-44450000D02*
X248920000Y-44450000D01*
X33020000Y-30480000D02*
X35560000Y-27940000D01*
X107950000Y-27940000D02*
X124460000Y-44450000D01*
X156115000Y-15335000D02*
X156115000Y-29115000D01*
X280670000Y-34290000D02*
X270510000Y-44450000D01*
X146050000Y-44450000D02*
X124460000Y-44450000D01*
%TO.N,/CS1*%
X96520000Y-10160000D02*
X104140000Y-17780000D01*
X118110000Y-17780000D02*
X131985000Y-31655000D01*
X104140000Y-17780000D02*
X118110000Y-17780000D01*
X135985000Y-31655000D02*
X137160000Y-30480000D01*
X131985000Y-31655000D02*
X135985000Y-31655000D01*
%TO.N,/CS2*%
X25400000Y-17780000D02*
X86360000Y-17780000D01*
X86360000Y-17780000D02*
X93980000Y-10160000D01*
X12700000Y-30480000D02*
X25400000Y-17780000D01*
%TD*%
%TA.AperFunction,Conductor*%
%TO.N,GND*%
G36*
X288330937Y-528502D02*
G01*
X288377430Y-582158D01*
X288387534Y-652432D01*
X288358040Y-717012D01*
X288327523Y-742615D01*
X288315702Y-749690D01*
X288312359Y-752368D01*
X288312355Y-752371D01*
X288199262Y-842976D01*
X288084242Y-935125D01*
X288081298Y-938227D01*
X288081294Y-938231D01*
X287991169Y-1033204D01*
X287880089Y-1150257D01*
X287707022Y-1391105D01*
X287705013Y-1394900D01*
X287705012Y-1394901D01*
X287696715Y-1410572D01*
X287568243Y-1653213D01*
X287466321Y-1931730D01*
X287465408Y-1935919D01*
X287464210Y-1940041D01*
X287462276Y-1939479D01*
X287432164Y-1994607D01*
X287369847Y-2028624D01*
X287343080Y-2031500D01*
X287023487Y-2031500D01*
X286981161Y-2037562D01*
X286924706Y-2045646D01*
X286924703Y-2045647D01*
X286915813Y-2046920D01*
X286907637Y-2050637D01*
X286907635Y-2050638D01*
X286791390Y-2103492D01*
X286791388Y-2103493D01*
X286783218Y-2107208D01*
X286672873Y-2202287D01*
X286593648Y-2324515D01*
X286551914Y-2464066D01*
X286551024Y-2609721D01*
X286591051Y-2749771D01*
X286668776Y-2872958D01*
X286777951Y-2969378D01*
X286786074Y-2973192D01*
X286786076Y-2973193D01*
X286793137Y-2976508D01*
X286909800Y-3031281D01*
X286918665Y-3032661D01*
X286918667Y-3032662D01*
X286987746Y-3043418D01*
X287020386Y-3048500D01*
X287344899Y-3048500D01*
X287413020Y-3068502D01*
X287459513Y-3122158D01*
X287464103Y-3133678D01*
X287505679Y-3255110D01*
X287547961Y-3378605D01*
X287550109Y-3384880D01*
X287683368Y-3649837D01*
X287851353Y-3894257D01*
X288050956Y-4113617D01*
X288054245Y-4116367D01*
X288275190Y-4301106D01*
X288275195Y-4301110D01*
X288278482Y-4303858D01*
X288404102Y-4382659D01*
X288526082Y-4459178D01*
X288526086Y-4459180D01*
X288529722Y-4461461D01*
X288533632Y-4463226D01*
X288533633Y-4463227D01*
X288796114Y-4581742D01*
X288796118Y-4581744D01*
X288800026Y-4583508D01*
X288940153Y-4625016D01*
X288961286Y-4631276D01*
X289020921Y-4669802D01*
X289050260Y-4734453D01*
X289051500Y-4752087D01*
X289051500Y-5076513D01*
X289066920Y-5184187D01*
X289127208Y-5316782D01*
X289222287Y-5427127D01*
X289344515Y-5506352D01*
X289484066Y-5548086D01*
X289493042Y-5548141D01*
X289493043Y-5548141D01*
X289554356Y-5548515D01*
X289629721Y-5548976D01*
X289769771Y-5508949D01*
X289892958Y-5431224D01*
X289989378Y-5322049D01*
X290051281Y-5190200D01*
X290068500Y-5079614D01*
X290068500Y-4752615D01*
X290088502Y-4684494D01*
X290142158Y-4638001D01*
X290162526Y-4630739D01*
X290224318Y-4614528D01*
X290255411Y-4606371D01*
X290259371Y-4604731D01*
X290259376Y-4604729D01*
X290441723Y-4529198D01*
X290529415Y-4492875D01*
X290540659Y-4486305D01*
X290781784Y-4345403D01*
X290781785Y-4345402D01*
X290785482Y-4343242D01*
X290832799Y-4306141D01*
X291015499Y-4162885D01*
X291018871Y-4160241D01*
X291225266Y-3947258D01*
X291227799Y-3943810D01*
X291227803Y-3943805D01*
X291363953Y-3758458D01*
X291420401Y-3715399D01*
X291491168Y-3709694D01*
X291553786Y-3743154D01*
X291588373Y-3805156D01*
X291591500Y-3833052D01*
X291591500Y-43159201D01*
X291571498Y-43227322D01*
X291517842Y-43273815D01*
X291447568Y-43283919D01*
X291382988Y-43254425D01*
X291362413Y-43231652D01*
X291359370Y-43227322D01*
X291254372Y-43077925D01*
X291052483Y-42860667D01*
X291049168Y-42857953D01*
X291049164Y-42857950D01*
X290826295Y-42675534D01*
X290822977Y-42672818D01*
X290570101Y-42517856D01*
X290542405Y-42505698D01*
X290302465Y-42400372D01*
X290298533Y-42398646D01*
X290290536Y-42396368D01*
X290159981Y-42359178D01*
X290099946Y-42321279D01*
X290069932Y-42256939D01*
X290068500Y-42237999D01*
X290068500Y-41913487D01*
X290053080Y-41805813D01*
X289992792Y-41673218D01*
X289897713Y-41562873D01*
X289775485Y-41483648D01*
X289635934Y-41441914D01*
X289626958Y-41441859D01*
X289626957Y-41441859D01*
X289565644Y-41441485D01*
X289490279Y-41441024D01*
X289350229Y-41481051D01*
X289227042Y-41558776D01*
X289130622Y-41667951D01*
X289068719Y-41799800D01*
X289051500Y-41910386D01*
X289051500Y-42237822D01*
X289031498Y-42305943D01*
X288977842Y-42352436D01*
X288958748Y-42359356D01*
X288842989Y-42391024D01*
X288839041Y-42392708D01*
X288574140Y-42505698D01*
X288574136Y-42505700D01*
X288570188Y-42507384D01*
X288441720Y-42584270D01*
X288319384Y-42657486D01*
X288319380Y-42657489D01*
X288315702Y-42659690D01*
X288312359Y-42662368D01*
X288312355Y-42662371D01*
X288199262Y-42752976D01*
X288084242Y-42845125D01*
X288081298Y-42848227D01*
X288081294Y-42848231D01*
X287991169Y-42943204D01*
X287880089Y-43060257D01*
X287707022Y-43301105D01*
X287705013Y-43304900D01*
X287705012Y-43304901D01*
X287696715Y-43320572D01*
X287568243Y-43563213D01*
X287466321Y-43841730D01*
X287465408Y-43845919D01*
X287464210Y-43850041D01*
X287462276Y-43849479D01*
X287432164Y-43904607D01*
X287369847Y-43938624D01*
X287343080Y-43941500D01*
X287023487Y-43941500D01*
X286981161Y-43947562D01*
X286924706Y-43955646D01*
X286924703Y-43955647D01*
X286915813Y-43956920D01*
X286907637Y-43960637D01*
X286907635Y-43960638D01*
X286791390Y-44013492D01*
X286791388Y-44013493D01*
X286783218Y-44017208D01*
X286672873Y-44112287D01*
X286593648Y-44234515D01*
X286551914Y-44374066D01*
X286551024Y-44519721D01*
X286591051Y-44659771D01*
X286668776Y-44782958D01*
X286777951Y-44879378D01*
X286786074Y-44883192D01*
X286786076Y-44883193D01*
X286841823Y-44909366D01*
X286909800Y-44941281D01*
X286918665Y-44942661D01*
X286918667Y-44942662D01*
X286987746Y-44953418D01*
X287020386Y-44958500D01*
X287344899Y-44958500D01*
X287413020Y-44978502D01*
X287459513Y-45032158D01*
X287464103Y-45043678D01*
X287513571Y-45188162D01*
X287543765Y-45276350D01*
X287550109Y-45294880D01*
X287683368Y-45559837D01*
X287851353Y-45804257D01*
X288050956Y-46023617D01*
X288054245Y-46026367D01*
X288275190Y-46211106D01*
X288275195Y-46211110D01*
X288278482Y-46213858D01*
X288334127Y-46248764D01*
X288381203Y-46301906D01*
X288392075Y-46372066D01*
X288363291Y-46436965D01*
X288303988Y-46476000D01*
X288267169Y-46481500D01*
X3838661Y-46481500D01*
X3770540Y-46461498D01*
X3724047Y-46407842D01*
X3713943Y-46337568D01*
X3743437Y-46272988D01*
X3765548Y-46253326D01*
X3765482Y-46253242D01*
X3766845Y-46252174D01*
X3766852Y-46252168D01*
X3998871Y-46070241D01*
X4205266Y-45857258D01*
X4207799Y-45853810D01*
X4207803Y-45853805D01*
X4362876Y-45642697D01*
X4380845Y-45618236D01*
X4452223Y-45486775D01*
X4520311Y-45361372D01*
X4520312Y-45361370D01*
X4522361Y-45357596D01*
X4598077Y-45157220D01*
X4625677Y-45084179D01*
X4625678Y-45084175D01*
X4627195Y-45080161D01*
X4632644Y-45056369D01*
X4667351Y-44994433D01*
X4730032Y-44961093D01*
X4755464Y-44958500D01*
X5076513Y-44958500D01*
X5118839Y-44952438D01*
X5175294Y-44944354D01*
X5175297Y-44944353D01*
X5184187Y-44943080D01*
X5192363Y-44939363D01*
X5192365Y-44939362D01*
X5308610Y-44886508D01*
X5308612Y-44886507D01*
X5316782Y-44882792D01*
X5427127Y-44787713D01*
X5506352Y-44665485D01*
X5548086Y-44525934D01*
X5548976Y-44380279D01*
X5508949Y-44240229D01*
X5431224Y-44117042D01*
X5322049Y-44020622D01*
X5313926Y-44016808D01*
X5313924Y-44016807D01*
X5250013Y-43986801D01*
X5190200Y-43958719D01*
X5181335Y-43957339D01*
X5181333Y-43957338D01*
X5112254Y-43946582D01*
X5079614Y-43941500D01*
X4756537Y-43941500D01*
X4688416Y-43921498D01*
X4641923Y-43867842D01*
X4637764Y-43857560D01*
X4579568Y-43693220D01*
X4540934Y-43584119D01*
X4404907Y-43320572D01*
X4393894Y-43304901D01*
X4236835Y-43081430D01*
X4234372Y-43077925D01*
X4032483Y-42860667D01*
X4029168Y-42857953D01*
X4029164Y-42857950D01*
X3806295Y-42675534D01*
X3802977Y-42672818D01*
X3550101Y-42517856D01*
X3522405Y-42505698D01*
X3282465Y-42400372D01*
X3278533Y-42398646D01*
X3270536Y-42396368D01*
X3139981Y-42359178D01*
X3079946Y-42321279D01*
X3049932Y-42256939D01*
X3048500Y-42237999D01*
X3048500Y-41913487D01*
X3033080Y-41805813D01*
X2972792Y-41673218D01*
X2877713Y-41562873D01*
X2755485Y-41483648D01*
X2615934Y-41441914D01*
X2606958Y-41441859D01*
X2606957Y-41441859D01*
X2545644Y-41441485D01*
X2470279Y-41441024D01*
X2330229Y-41481051D01*
X2207042Y-41558776D01*
X2110622Y-41667951D01*
X2048719Y-41799800D01*
X2031500Y-41910386D01*
X2031500Y-42237822D01*
X2011498Y-42305943D01*
X1957842Y-42352436D01*
X1938748Y-42359356D01*
X1822989Y-42391024D01*
X1819041Y-42392708D01*
X1554140Y-42505698D01*
X1554136Y-42505700D01*
X1550188Y-42507384D01*
X1421720Y-42584270D01*
X1299384Y-42657486D01*
X1299380Y-42657489D01*
X1295702Y-42659690D01*
X1292359Y-42662368D01*
X1292355Y-42662371D01*
X1179262Y-42752976D01*
X1064242Y-42845125D01*
X1061298Y-42848227D01*
X1061294Y-42848231D01*
X971169Y-42943204D01*
X860089Y-43060257D01*
X768687Y-43187456D01*
X736822Y-43231801D01*
X680828Y-43275449D01*
X610124Y-43281895D01*
X547160Y-43249092D01*
X511926Y-43187456D01*
X508500Y-43158275D01*
X508500Y-30446695D01*
X8797251Y-30446695D01*
X8797548Y-30451848D01*
X8797548Y-30451851D01*
X8803011Y-30546590D01*
X8810110Y-30669715D01*
X8811247Y-30674761D01*
X8811248Y-30674767D01*
X8831119Y-30762939D01*
X8859222Y-30887639D01*
X8943266Y-31094616D01*
X8994019Y-31177438D01*
X9057291Y-31280688D01*
X9059987Y-31285088D01*
X9206250Y-31453938D01*
X9210230Y-31457242D01*
X9214981Y-31461187D01*
X9254616Y-31520090D01*
X9256113Y-31591071D01*
X9218997Y-31651593D01*
X9178725Y-31676112D01*
X9090095Y-31709338D01*
X9063295Y-31719385D01*
X8946739Y-31806739D01*
X8859385Y-31923295D01*
X8808255Y-32059684D01*
X8801500Y-32121866D01*
X8801500Y-33918134D01*
X8808255Y-33980316D01*
X8859385Y-34116705D01*
X8946739Y-34233261D01*
X9063295Y-34320615D01*
X9199684Y-34371745D01*
X9261866Y-34378500D01*
X11058134Y-34378500D01*
X11120316Y-34371745D01*
X11256705Y-34320615D01*
X11373261Y-34233261D01*
X11460615Y-34116705D01*
X11482799Y-34057529D01*
X11504598Y-33999382D01*
X11547240Y-33942618D01*
X11613802Y-33917918D01*
X11683150Y-33933126D01*
X11717817Y-33961114D01*
X11746250Y-33993938D01*
X11918126Y-34136632D01*
X12111000Y-34249338D01*
X12115825Y-34251180D01*
X12115826Y-34251181D01*
X12188612Y-34278975D01*
X12319692Y-34329030D01*
X12324760Y-34330061D01*
X12324763Y-34330062D01*
X12403436Y-34346068D01*
X12538597Y-34373567D01*
X12543772Y-34373757D01*
X12543774Y-34373757D01*
X12756673Y-34381564D01*
X12756677Y-34381564D01*
X12761837Y-34381753D01*
X12766957Y-34381097D01*
X12766959Y-34381097D01*
X12978288Y-34354025D01*
X12978289Y-34354025D01*
X12983416Y-34353368D01*
X12988366Y-34351883D01*
X13192429Y-34290661D01*
X13192434Y-34290659D01*
X13197384Y-34289174D01*
X13397994Y-34190896D01*
X13579860Y-34061173D01*
X13738096Y-33903489D01*
X13868453Y-33722077D01*
X13869776Y-33723028D01*
X13916645Y-33679857D01*
X13986580Y-33667625D01*
X14052026Y-33695144D01*
X14079875Y-33726994D01*
X14139987Y-33825088D01*
X14286250Y-33993938D01*
X14458126Y-34136632D01*
X14651000Y-34249338D01*
X14655825Y-34251180D01*
X14655826Y-34251181D01*
X14728612Y-34278975D01*
X14859692Y-34329030D01*
X14864760Y-34330061D01*
X14864763Y-34330062D01*
X14943436Y-34346068D01*
X15078597Y-34373567D01*
X15083772Y-34373757D01*
X15083774Y-34373757D01*
X15296673Y-34381564D01*
X15296677Y-34381564D01*
X15301837Y-34381753D01*
X15306957Y-34381097D01*
X15306959Y-34381097D01*
X15518288Y-34354025D01*
X15518289Y-34354025D01*
X15523416Y-34353368D01*
X15528366Y-34351883D01*
X15732429Y-34290661D01*
X15732434Y-34290659D01*
X15737384Y-34289174D01*
X15937994Y-34190896D01*
X16119860Y-34061173D01*
X16278096Y-33903489D01*
X16408453Y-33722077D01*
X16409776Y-33723028D01*
X16456645Y-33679857D01*
X16526580Y-33667625D01*
X16592026Y-33695144D01*
X16619875Y-33726994D01*
X16679987Y-33825088D01*
X16826250Y-33993938D01*
X16998126Y-34136632D01*
X17191000Y-34249338D01*
X17195825Y-34251180D01*
X17195826Y-34251181D01*
X17268612Y-34278975D01*
X17399692Y-34329030D01*
X17404760Y-34330061D01*
X17404763Y-34330062D01*
X17483436Y-34346068D01*
X17618597Y-34373567D01*
X17623772Y-34373757D01*
X17623774Y-34373757D01*
X17836673Y-34381564D01*
X17836677Y-34381564D01*
X17841837Y-34381753D01*
X17846957Y-34381097D01*
X17846959Y-34381097D01*
X18058288Y-34354025D01*
X18058289Y-34354025D01*
X18063416Y-34353368D01*
X18068366Y-34351883D01*
X18272429Y-34290661D01*
X18272434Y-34290659D01*
X18277384Y-34289174D01*
X18477994Y-34190896D01*
X18659860Y-34061173D01*
X18818096Y-33903489D01*
X18948453Y-33722077D01*
X18949776Y-33723028D01*
X18996645Y-33679857D01*
X19066580Y-33667625D01*
X19132026Y-33695144D01*
X19159875Y-33726994D01*
X19219987Y-33825088D01*
X19366250Y-33993938D01*
X19538126Y-34136632D01*
X19731000Y-34249338D01*
X19735825Y-34251180D01*
X19735826Y-34251181D01*
X19808612Y-34278975D01*
X19939692Y-34329030D01*
X19944760Y-34330061D01*
X19944763Y-34330062D01*
X20023436Y-34346068D01*
X20158597Y-34373567D01*
X20163772Y-34373757D01*
X20163774Y-34373757D01*
X20376673Y-34381564D01*
X20376677Y-34381564D01*
X20381837Y-34381753D01*
X20386957Y-34381097D01*
X20386959Y-34381097D01*
X20598288Y-34354025D01*
X20598289Y-34354025D01*
X20603416Y-34353368D01*
X20608366Y-34351883D01*
X20812429Y-34290661D01*
X20812434Y-34290659D01*
X20817384Y-34289174D01*
X21017994Y-34190896D01*
X21199860Y-34061173D01*
X21358096Y-33903489D01*
X21488453Y-33722077D01*
X21489776Y-33723028D01*
X21536645Y-33679857D01*
X21606580Y-33667625D01*
X21672026Y-33695144D01*
X21699875Y-33726994D01*
X21759987Y-33825088D01*
X21906250Y-33993938D01*
X22078126Y-34136632D01*
X22271000Y-34249338D01*
X22275825Y-34251180D01*
X22275826Y-34251181D01*
X22348612Y-34278975D01*
X22479692Y-34329030D01*
X22484760Y-34330061D01*
X22484763Y-34330062D01*
X22563436Y-34346068D01*
X22698597Y-34373567D01*
X22703772Y-34373757D01*
X22703774Y-34373757D01*
X22916673Y-34381564D01*
X22916677Y-34381564D01*
X22921837Y-34381753D01*
X22926957Y-34381097D01*
X22926959Y-34381097D01*
X23138288Y-34354025D01*
X23138289Y-34354025D01*
X23143416Y-34353368D01*
X23148366Y-34351883D01*
X23352429Y-34290661D01*
X23352434Y-34290659D01*
X23357384Y-34289174D01*
X23557994Y-34190896D01*
X23739860Y-34061173D01*
X23898096Y-33903489D01*
X24028453Y-33722077D01*
X24029776Y-33723028D01*
X24076645Y-33679857D01*
X24146580Y-33667625D01*
X24212026Y-33695144D01*
X24239875Y-33726994D01*
X24299987Y-33825088D01*
X24446250Y-33993938D01*
X24618126Y-34136632D01*
X24811000Y-34249338D01*
X24815825Y-34251180D01*
X24815826Y-34251181D01*
X24888612Y-34278975D01*
X25019692Y-34329030D01*
X25024760Y-34330061D01*
X25024763Y-34330062D01*
X25103436Y-34346068D01*
X25238597Y-34373567D01*
X25243772Y-34373757D01*
X25243774Y-34373757D01*
X25456673Y-34381564D01*
X25456677Y-34381564D01*
X25461837Y-34381753D01*
X25466957Y-34381097D01*
X25466959Y-34381097D01*
X25678288Y-34354025D01*
X25678289Y-34354025D01*
X25683416Y-34353368D01*
X25688366Y-34351883D01*
X25892429Y-34290661D01*
X25892434Y-34290659D01*
X25897384Y-34289174D01*
X26097994Y-34190896D01*
X26279860Y-34061173D01*
X26438096Y-33903489D01*
X26568453Y-33722077D01*
X26569776Y-33723028D01*
X26616645Y-33679857D01*
X26686580Y-33667625D01*
X26752026Y-33695144D01*
X26779875Y-33726994D01*
X26839987Y-33825088D01*
X26986250Y-33993938D01*
X27158126Y-34136632D01*
X27351000Y-34249338D01*
X27355825Y-34251180D01*
X27355826Y-34251181D01*
X27428612Y-34278975D01*
X27559692Y-34329030D01*
X27564760Y-34330061D01*
X27564763Y-34330062D01*
X27643436Y-34346068D01*
X27778597Y-34373567D01*
X27783772Y-34373757D01*
X27783774Y-34373757D01*
X27996673Y-34381564D01*
X27996677Y-34381564D01*
X28001837Y-34381753D01*
X28006957Y-34381097D01*
X28006959Y-34381097D01*
X28218288Y-34354025D01*
X28218289Y-34354025D01*
X28223416Y-34353368D01*
X28228366Y-34351883D01*
X28432429Y-34290661D01*
X28432434Y-34290659D01*
X28437384Y-34289174D01*
X28637994Y-34190896D01*
X28819860Y-34061173D01*
X28978096Y-33903489D01*
X29108453Y-33722077D01*
X29109640Y-33722930D01*
X29156960Y-33679362D01*
X29226897Y-33667145D01*
X29292338Y-33694678D01*
X29320166Y-33726511D01*
X29377694Y-33820388D01*
X29383777Y-33828699D01*
X29523213Y-33989667D01*
X29530580Y-33996883D01*
X29694434Y-34132916D01*
X29702881Y-34138831D01*
X29886756Y-34246279D01*
X29896042Y-34250729D01*
X30095001Y-34326703D01*
X30104899Y-34329579D01*
X30208250Y-34350606D01*
X30222299Y-34349410D01*
X30226000Y-34339065D01*
X30226000Y-34338517D01*
X30734000Y-34338517D01*
X30738064Y-34352359D01*
X30751478Y-34354393D01*
X30758184Y-34353534D01*
X30768262Y-34351392D01*
X30972255Y-34290191D01*
X30981842Y-34286433D01*
X31173095Y-34192739D01*
X31181945Y-34187464D01*
X31355328Y-34063792D01*
X31363200Y-34057139D01*
X31514052Y-33906812D01*
X31520730Y-33898965D01*
X31648022Y-33721819D01*
X31649147Y-33722627D01*
X31696669Y-33678876D01*
X31766607Y-33666661D01*
X31832046Y-33694197D01*
X31859870Y-33726028D01*
X31917690Y-33820383D01*
X31923777Y-33828699D01*
X32063213Y-33989667D01*
X32070580Y-33996883D01*
X32234434Y-34132916D01*
X32242881Y-34138831D01*
X32426756Y-34246279D01*
X32436042Y-34250729D01*
X32635001Y-34326703D01*
X32644899Y-34329579D01*
X32748250Y-34350606D01*
X32762299Y-34349410D01*
X32766000Y-34339065D01*
X32766000Y-34338517D01*
X33274000Y-34338517D01*
X33278064Y-34352359D01*
X33291478Y-34354393D01*
X33298184Y-34353534D01*
X33308262Y-34351392D01*
X33512255Y-34290191D01*
X33521842Y-34286433D01*
X33713095Y-34192739D01*
X33721945Y-34187464D01*
X33895328Y-34063792D01*
X33903200Y-34057139D01*
X34054052Y-33906812D01*
X34060730Y-33898965D01*
X34185003Y-33726020D01*
X34190313Y-33717183D01*
X34284670Y-33526267D01*
X34288469Y-33516672D01*
X34350377Y-33312910D01*
X34352555Y-33302837D01*
X34353986Y-33291962D01*
X34351775Y-33277778D01*
X34338617Y-33274000D01*
X33292115Y-33274000D01*
X33276876Y-33278475D01*
X33275671Y-33279865D01*
X33274000Y-33287548D01*
X33274000Y-34338517D01*
X32766000Y-34338517D01*
X32766000Y-33292115D01*
X32761525Y-33276876D01*
X32760135Y-33275671D01*
X32752452Y-33274000D01*
X30752115Y-33274000D01*
X30736876Y-33278475D01*
X30735671Y-33279865D01*
X30734000Y-33287548D01*
X30734000Y-34338517D01*
X30226000Y-34338517D01*
X30226000Y-32892000D01*
X30246002Y-32823879D01*
X30299658Y-32777386D01*
X30352000Y-32766000D01*
X34338344Y-32766000D01*
X34351875Y-32762027D01*
X34353180Y-32752947D01*
X34311214Y-32585875D01*
X34307894Y-32576124D01*
X34222972Y-32380814D01*
X34218105Y-32371739D01*
X34102426Y-32192926D01*
X34096136Y-32184757D01*
X33952806Y-32027240D01*
X33945273Y-32020215D01*
X33778139Y-31888222D01*
X33769556Y-31882520D01*
X33732602Y-31862120D01*
X33682631Y-31811687D01*
X33667859Y-31742245D01*
X33692975Y-31675839D01*
X33720327Y-31649232D01*
X33744040Y-31632318D01*
X33899860Y-31521173D01*
X34058096Y-31363489D01*
X34117594Y-31280689D01*
X34185435Y-31186277D01*
X34188453Y-31182077D01*
X34209320Y-31139857D01*
X34285136Y-30986453D01*
X34285137Y-30986451D01*
X34287430Y-30981811D01*
X34352370Y-30768069D01*
X34381529Y-30546590D01*
X34383156Y-30480000D01*
X34364852Y-30257361D01*
X34336821Y-30145765D01*
X34339625Y-30074823D01*
X34369930Y-30025974D01*
X35785499Y-28610405D01*
X35847811Y-28576379D01*
X35874594Y-28573500D01*
X107635406Y-28573500D01*
X107703527Y-28593502D01*
X107724501Y-28610405D01*
X123956348Y-44842253D01*
X123963888Y-44850539D01*
X123968000Y-44857018D01*
X123973777Y-44862443D01*
X124017651Y-44903643D01*
X124020493Y-44906398D01*
X124040230Y-44926135D01*
X124043427Y-44928615D01*
X124052447Y-44936318D01*
X124084679Y-44966586D01*
X124091625Y-44970405D01*
X124091628Y-44970407D01*
X124102434Y-44976348D01*
X124118953Y-44987199D01*
X124134959Y-44999614D01*
X124142228Y-45002759D01*
X124142232Y-45002762D01*
X124175537Y-45017174D01*
X124186186Y-45022390D01*
X124224940Y-45043695D01*
X124232615Y-45045666D01*
X124232616Y-45045666D01*
X124244562Y-45048733D01*
X124263266Y-45055137D01*
X124263269Y-45055138D01*
X124281855Y-45063181D01*
X124289678Y-45064420D01*
X124289688Y-45064423D01*
X124325524Y-45070099D01*
X124337144Y-45072505D01*
X124368959Y-45080673D01*
X124379970Y-45083500D01*
X124400224Y-45083500D01*
X124419934Y-45085051D01*
X124439943Y-45088220D01*
X124447835Y-45087474D01*
X124466580Y-45085702D01*
X124483962Y-45084059D01*
X124495819Y-45083500D01*
X145971233Y-45083500D01*
X145982416Y-45084027D01*
X145989909Y-45085702D01*
X145997835Y-45085453D01*
X145997836Y-45085453D01*
X146057986Y-45083562D01*
X146061945Y-45083500D01*
X146089856Y-45083500D01*
X146093791Y-45083003D01*
X146093856Y-45082995D01*
X146105693Y-45082062D01*
X146137951Y-45081048D01*
X146141970Y-45080922D01*
X146149889Y-45080673D01*
X146169343Y-45075021D01*
X146188700Y-45071013D01*
X146200930Y-45069468D01*
X146200931Y-45069468D01*
X146208797Y-45068474D01*
X146216168Y-45065555D01*
X146216170Y-45065555D01*
X146249912Y-45052196D01*
X146261142Y-45048351D01*
X146295983Y-45038229D01*
X146295984Y-45038229D01*
X146303593Y-45036018D01*
X146310412Y-45031985D01*
X146310417Y-45031983D01*
X146321028Y-45025707D01*
X146338776Y-45017012D01*
X146357617Y-45009552D01*
X146377987Y-44994753D01*
X146393387Y-44983564D01*
X146403307Y-44977048D01*
X146434535Y-44958580D01*
X146434538Y-44958578D01*
X146441362Y-44954542D01*
X146455683Y-44940221D01*
X146470717Y-44927380D01*
X146472432Y-44926134D01*
X146487107Y-44915472D01*
X146515298Y-44881395D01*
X146523288Y-44872616D01*
X156602253Y-34793652D01*
X156610539Y-34786112D01*
X156617018Y-34782000D01*
X156663644Y-34732348D01*
X156666398Y-34729507D01*
X156686135Y-34709770D01*
X156688615Y-34706573D01*
X156696320Y-34697551D01*
X156721159Y-34671100D01*
X156726586Y-34665321D01*
X156730405Y-34658375D01*
X156730407Y-34658372D01*
X156736348Y-34647566D01*
X156747199Y-34631047D01*
X156747559Y-34630583D01*
X156759614Y-34615041D01*
X156762759Y-34607772D01*
X156762762Y-34607768D01*
X156777174Y-34574463D01*
X156782391Y-34563812D01*
X156803695Y-34525060D01*
X156805668Y-34517378D01*
X156808733Y-34505438D01*
X156815137Y-34486734D01*
X156820033Y-34475420D01*
X156820034Y-34475417D01*
X156823181Y-34468145D01*
X156824421Y-34460318D01*
X156824423Y-34460312D01*
X156830099Y-34424476D01*
X156832505Y-34412855D01*
X156840980Y-34379846D01*
X156877294Y-34318839D01*
X156940826Y-34287150D01*
X157007971Y-34293470D01*
X157095001Y-34326703D01*
X157104899Y-34329579D01*
X157208250Y-34350606D01*
X157222299Y-34349410D01*
X157226000Y-34339065D01*
X157226000Y-34338517D01*
X157734000Y-34338517D01*
X157738064Y-34352359D01*
X157751478Y-34354393D01*
X157758184Y-34353534D01*
X157768262Y-34351392D01*
X157972255Y-34290191D01*
X157981842Y-34286433D01*
X158173095Y-34192739D01*
X158181945Y-34187464D01*
X158355328Y-34063792D01*
X158363200Y-34057139D01*
X158514052Y-33906812D01*
X158520730Y-33898965D01*
X158645003Y-33726020D01*
X158650313Y-33717183D01*
X158744670Y-33526267D01*
X158748469Y-33516672D01*
X158810377Y-33312910D01*
X158812555Y-33302837D01*
X158813986Y-33291962D01*
X158811775Y-33277778D01*
X158798617Y-33274000D01*
X157752115Y-33274000D01*
X157736876Y-33278475D01*
X157735671Y-33279865D01*
X157734000Y-33287548D01*
X157734000Y-34338517D01*
X157226000Y-34338517D01*
X157226000Y-33292115D01*
X157221525Y-33276876D01*
X157220135Y-33275671D01*
X157212452Y-33274000D01*
X156969500Y-33274000D01*
X156901379Y-33253998D01*
X156854886Y-33200342D01*
X156843500Y-33148000D01*
X156843500Y-32892000D01*
X156863502Y-32823879D01*
X156917158Y-32777386D01*
X156969500Y-32766000D01*
X158798344Y-32766000D01*
X158811875Y-32762027D01*
X158813180Y-32752947D01*
X158771214Y-32585875D01*
X158767894Y-32576124D01*
X158682972Y-32380814D01*
X158678105Y-32371739D01*
X158562426Y-32192926D01*
X158556136Y-32184757D01*
X158412806Y-32027240D01*
X158405273Y-32020215D01*
X158238139Y-31888222D01*
X158229556Y-31882520D01*
X158192602Y-31862120D01*
X158142631Y-31811687D01*
X158127859Y-31742245D01*
X158152975Y-31675839D01*
X158180327Y-31649232D01*
X158204040Y-31632318D01*
X158359860Y-31521173D01*
X158518096Y-31363489D01*
X158577594Y-31280689D01*
X158645435Y-31186277D01*
X158648453Y-31182077D01*
X158669320Y-31139857D01*
X158745136Y-30986453D01*
X158745137Y-30986451D01*
X158747430Y-30981811D01*
X158812370Y-30768069D01*
X158841529Y-30546590D01*
X158843156Y-30480000D01*
X158824852Y-30257361D01*
X158770431Y-30040702D01*
X158681354Y-29835840D01*
X158560014Y-29648277D01*
X158409670Y-29483051D01*
X158405619Y-29479852D01*
X158405615Y-29479848D01*
X158238414Y-29347800D01*
X158238410Y-29347798D01*
X158234359Y-29344598D01*
X158038789Y-29236638D01*
X158033920Y-29234914D01*
X158033916Y-29234912D01*
X157833087Y-29163795D01*
X157833083Y-29163794D01*
X157828212Y-29162069D01*
X157823119Y-29161162D01*
X157823116Y-29161161D01*
X157613373Y-29123800D01*
X157613367Y-29123799D01*
X157608284Y-29122894D01*
X157534452Y-29121992D01*
X157390081Y-29120228D01*
X157390079Y-29120228D01*
X157384911Y-29120165D01*
X157164091Y-29153955D01*
X157151532Y-29158060D01*
X157080568Y-29160210D01*
X157023294Y-29127389D01*
X156785405Y-28889500D01*
X156751379Y-28827188D01*
X156748500Y-28800405D01*
X156748500Y-17867377D01*
X156768502Y-17799256D01*
X156822158Y-17752763D01*
X156892432Y-17742659D01*
X156919449Y-17749667D01*
X157095001Y-17816703D01*
X157104899Y-17819579D01*
X157208250Y-17840606D01*
X157222299Y-17839410D01*
X157226000Y-17829065D01*
X157226000Y-17828517D01*
X157734000Y-17828517D01*
X157738064Y-17842359D01*
X157751478Y-17844393D01*
X157758184Y-17843534D01*
X157768262Y-17841392D01*
X157972255Y-17780191D01*
X157981842Y-17776433D01*
X158173095Y-17682739D01*
X158181945Y-17677464D01*
X158355328Y-17553792D01*
X158363200Y-17547139D01*
X158514052Y-17396812D01*
X158520730Y-17388965D01*
X158645003Y-17216020D01*
X158650313Y-17207183D01*
X158744670Y-17016267D01*
X158748469Y-17006672D01*
X158810377Y-16802910D01*
X158812555Y-16792837D01*
X158813986Y-16781962D01*
X158811775Y-16767778D01*
X158798617Y-16764000D01*
X157752115Y-16764000D01*
X157736876Y-16768475D01*
X157735671Y-16769865D01*
X157734000Y-16777548D01*
X157734000Y-17828517D01*
X157226000Y-17828517D01*
X157226000Y-16782115D01*
X157221525Y-16766876D01*
X157220135Y-16765671D01*
X157212452Y-16764000D01*
X156874500Y-16764000D01*
X156806379Y-16743998D01*
X156759886Y-16690342D01*
X156748500Y-16638000D01*
X156748500Y-16382000D01*
X156768502Y-16313879D01*
X156822158Y-16267386D01*
X156874500Y-16256000D01*
X158798344Y-16256000D01*
X158811875Y-16252027D01*
X158813180Y-16242947D01*
X158771214Y-16075875D01*
X158767894Y-16066124D01*
X158682972Y-15870814D01*
X158678105Y-15861739D01*
X158562426Y-15682926D01*
X158556136Y-15674757D01*
X158412806Y-15517240D01*
X158405273Y-15510215D01*
X158238139Y-15378222D01*
X158229556Y-15372520D01*
X158192602Y-15352120D01*
X158142631Y-15301687D01*
X158127859Y-15232245D01*
X158152975Y-15165839D01*
X158180327Y-15139232D01*
X158204040Y-15122318D01*
X158359860Y-15011173D01*
X158518096Y-14853489D01*
X158577594Y-14770689D01*
X158645435Y-14676277D01*
X158648453Y-14672077D01*
X158650746Y-14667437D01*
X158652446Y-14664608D01*
X158704674Y-14616518D01*
X158760451Y-14603500D01*
X218125406Y-14603500D01*
X218193527Y-14623502D01*
X218214501Y-14640405D01*
X248416343Y-44842247D01*
X248423887Y-44850537D01*
X248428000Y-44857018D01*
X248433777Y-44862443D01*
X248477667Y-44903658D01*
X248480494Y-44906398D01*
X248500230Y-44926134D01*
X248503420Y-44928608D01*
X248512447Y-44936318D01*
X248544679Y-44966586D01*
X248555075Y-44972301D01*
X248562432Y-44976346D01*
X248578956Y-44987199D01*
X248594959Y-44999613D01*
X248635539Y-45017174D01*
X248646173Y-45022383D01*
X248684940Y-45043695D01*
X248692617Y-45045666D01*
X248692622Y-45045668D01*
X248704558Y-45048732D01*
X248723266Y-45055137D01*
X248741855Y-45063181D01*
X248749680Y-45064420D01*
X248749682Y-45064421D01*
X248785519Y-45070097D01*
X248797140Y-45072504D01*
X248828959Y-45080673D01*
X248839970Y-45083500D01*
X248860231Y-45083500D01*
X248879940Y-45085051D01*
X248899943Y-45088219D01*
X248907835Y-45087473D01*
X248913062Y-45086979D01*
X248943954Y-45084059D01*
X248955811Y-45083500D01*
X270431233Y-45083500D01*
X270442416Y-45084027D01*
X270449909Y-45085702D01*
X270457835Y-45085453D01*
X270457836Y-45085453D01*
X270517986Y-45083562D01*
X270521945Y-45083500D01*
X270549856Y-45083500D01*
X270553791Y-45083003D01*
X270553856Y-45082995D01*
X270565693Y-45082062D01*
X270597951Y-45081048D01*
X270601970Y-45080922D01*
X270609889Y-45080673D01*
X270629343Y-45075021D01*
X270648700Y-45071013D01*
X270660930Y-45069468D01*
X270660931Y-45069468D01*
X270668797Y-45068474D01*
X270676168Y-45065555D01*
X270676170Y-45065555D01*
X270709912Y-45052196D01*
X270721142Y-45048351D01*
X270755983Y-45038229D01*
X270755984Y-45038229D01*
X270763593Y-45036018D01*
X270770412Y-45031985D01*
X270770417Y-45031983D01*
X270781028Y-45025707D01*
X270798776Y-45017012D01*
X270817617Y-45009552D01*
X270837987Y-44994753D01*
X270853387Y-44983564D01*
X270863307Y-44977048D01*
X270894535Y-44958580D01*
X270894538Y-44958578D01*
X270901362Y-44954542D01*
X270915683Y-44940221D01*
X270930717Y-44927380D01*
X270932432Y-44926134D01*
X270947107Y-44915472D01*
X270975298Y-44881395D01*
X270983288Y-44872616D01*
X281062253Y-34793652D01*
X281070539Y-34786112D01*
X281077018Y-34782000D01*
X281123644Y-34732348D01*
X281126398Y-34729507D01*
X281146135Y-34709770D01*
X281148615Y-34706573D01*
X281156320Y-34697551D01*
X281181159Y-34671100D01*
X281186586Y-34665321D01*
X281190405Y-34658375D01*
X281190407Y-34658372D01*
X281196348Y-34647566D01*
X281207199Y-34631047D01*
X281207559Y-34630583D01*
X281219614Y-34615041D01*
X281222759Y-34607772D01*
X281222762Y-34607768D01*
X281237174Y-34574463D01*
X281242391Y-34563812D01*
X281263695Y-34525060D01*
X281265668Y-34517378D01*
X281268733Y-34505438D01*
X281275137Y-34486734D01*
X281280033Y-34475420D01*
X281280034Y-34475417D01*
X281283181Y-34468145D01*
X281284421Y-34460318D01*
X281284423Y-34460312D01*
X281290099Y-34424476D01*
X281292505Y-34412855D01*
X281300980Y-34379846D01*
X281337294Y-34318839D01*
X281400826Y-34287150D01*
X281467971Y-34293470D01*
X281555001Y-34326703D01*
X281564899Y-34329579D01*
X281668250Y-34350606D01*
X281682299Y-34349410D01*
X281686000Y-34339065D01*
X281686000Y-34338517D01*
X282194000Y-34338517D01*
X282198064Y-34352359D01*
X282211478Y-34354393D01*
X282218184Y-34353534D01*
X282228262Y-34351392D01*
X282432255Y-34290191D01*
X282441842Y-34286433D01*
X282633095Y-34192739D01*
X282641945Y-34187464D01*
X282815328Y-34063792D01*
X282823200Y-34057139D01*
X282974052Y-33906812D01*
X282980730Y-33898965D01*
X283105003Y-33726020D01*
X283110313Y-33717183D01*
X283204670Y-33526267D01*
X283208469Y-33516672D01*
X283270377Y-33312910D01*
X283272555Y-33302837D01*
X283273986Y-33291962D01*
X283271775Y-33277778D01*
X283258617Y-33274000D01*
X282212115Y-33274000D01*
X282196876Y-33278475D01*
X282195671Y-33279865D01*
X282194000Y-33287548D01*
X282194000Y-34338517D01*
X281686000Y-34338517D01*
X281686000Y-33292115D01*
X281681525Y-33276876D01*
X281680135Y-33275671D01*
X281672452Y-33274000D01*
X281429500Y-33274000D01*
X281361379Y-33253998D01*
X281314886Y-33200342D01*
X281303500Y-33148000D01*
X281303500Y-32892000D01*
X281323502Y-32823879D01*
X281377158Y-32777386D01*
X281429500Y-32766000D01*
X283258344Y-32766000D01*
X283271875Y-32762027D01*
X283273180Y-32752947D01*
X283231214Y-32585875D01*
X283227894Y-32576124D01*
X283142972Y-32380814D01*
X283138105Y-32371739D01*
X283022426Y-32192926D01*
X283016136Y-32184757D01*
X282872806Y-32027240D01*
X282865273Y-32020215D01*
X282698139Y-31888222D01*
X282689556Y-31882520D01*
X282652602Y-31862120D01*
X282602631Y-31811687D01*
X282587859Y-31742245D01*
X282612975Y-31675839D01*
X282640327Y-31649232D01*
X282664040Y-31632318D01*
X282819860Y-31521173D01*
X282978096Y-31363489D01*
X283037594Y-31280689D01*
X283105435Y-31186277D01*
X283108453Y-31182077D01*
X283129320Y-31139857D01*
X283205136Y-30986453D01*
X283205137Y-30986451D01*
X283207430Y-30981811D01*
X283272370Y-30768069D01*
X283301529Y-30546590D01*
X283303156Y-30480000D01*
X283284852Y-30257361D01*
X283230431Y-30040702D01*
X283141354Y-29835840D01*
X283020014Y-29648277D01*
X282869670Y-29483051D01*
X282865619Y-29479852D01*
X282865615Y-29479848D01*
X282698414Y-29347800D01*
X282698410Y-29347798D01*
X282694359Y-29344598D01*
X282498789Y-29236638D01*
X282493920Y-29234914D01*
X282493916Y-29234912D01*
X282293087Y-29163795D01*
X282293083Y-29163794D01*
X282288212Y-29162069D01*
X282283119Y-29161162D01*
X282283116Y-29161161D01*
X282073373Y-29123800D01*
X282073367Y-29123799D01*
X282068284Y-29122894D01*
X281994452Y-29121992D01*
X281850081Y-29120228D01*
X281850079Y-29120228D01*
X281844911Y-29120165D01*
X281624091Y-29153955D01*
X281411756Y-29223357D01*
X281213607Y-29326507D01*
X281209474Y-29329610D01*
X281209471Y-29329612D01*
X281185247Y-29347800D01*
X281034965Y-29460635D01*
X280880629Y-29622138D01*
X280773201Y-29779621D01*
X280718293Y-29824621D01*
X280647768Y-29832792D01*
X280584021Y-29801538D01*
X280563324Y-29777054D01*
X280482822Y-29652617D01*
X280482820Y-29652614D01*
X280480014Y-29648277D01*
X280329670Y-29483051D01*
X280325619Y-29479852D01*
X280325615Y-29479848D01*
X280158414Y-29347800D01*
X280158410Y-29347798D01*
X280154359Y-29344598D01*
X279958789Y-29236638D01*
X279953920Y-29234914D01*
X279953916Y-29234912D01*
X279753087Y-29163795D01*
X279753083Y-29163794D01*
X279748212Y-29162069D01*
X279743119Y-29161162D01*
X279743116Y-29161161D01*
X279533373Y-29123800D01*
X279533367Y-29123799D01*
X279528284Y-29122894D01*
X279454452Y-29121992D01*
X279310081Y-29120228D01*
X279310079Y-29120228D01*
X279304911Y-29120165D01*
X279084091Y-29153955D01*
X278871756Y-29223357D01*
X278673607Y-29326507D01*
X278669474Y-29329610D01*
X278669471Y-29329612D01*
X278645247Y-29347800D01*
X278494965Y-29460635D01*
X278340629Y-29622138D01*
X278233201Y-29779621D01*
X278178293Y-29824621D01*
X278107768Y-29832792D01*
X278044021Y-29801538D01*
X278023324Y-29777054D01*
X277942822Y-29652617D01*
X277942820Y-29652614D01*
X277940014Y-29648277D01*
X277789670Y-29483051D01*
X277785619Y-29479852D01*
X277785615Y-29479848D01*
X277618414Y-29347800D01*
X277618410Y-29347798D01*
X277614359Y-29344598D01*
X277418789Y-29236638D01*
X277413920Y-29234914D01*
X277413916Y-29234912D01*
X277213087Y-29163795D01*
X277213083Y-29163794D01*
X277208212Y-29162069D01*
X277203119Y-29161162D01*
X277203116Y-29161161D01*
X276993373Y-29123800D01*
X276993367Y-29123799D01*
X276988284Y-29122894D01*
X276914452Y-29121992D01*
X276770081Y-29120228D01*
X276770079Y-29120228D01*
X276764911Y-29120165D01*
X276544091Y-29153955D01*
X276331756Y-29223357D01*
X276133607Y-29326507D01*
X276129474Y-29329610D01*
X276129471Y-29329612D01*
X276105247Y-29347800D01*
X275954965Y-29460635D01*
X275800629Y-29622138D01*
X275693201Y-29779621D01*
X275638293Y-29824621D01*
X275567768Y-29832792D01*
X275504021Y-29801538D01*
X275483324Y-29777054D01*
X275402822Y-29652617D01*
X275402820Y-29652614D01*
X275400014Y-29648277D01*
X275249670Y-29483051D01*
X275245619Y-29479852D01*
X275245615Y-29479848D01*
X275078414Y-29347800D01*
X275078410Y-29347798D01*
X275074359Y-29344598D01*
X274878789Y-29236638D01*
X274873920Y-29234914D01*
X274873916Y-29234912D01*
X274673087Y-29163795D01*
X274673083Y-29163794D01*
X274668212Y-29162069D01*
X274663119Y-29161162D01*
X274663116Y-29161161D01*
X274453373Y-29123800D01*
X274453367Y-29123799D01*
X274448284Y-29122894D01*
X274374452Y-29121992D01*
X274230081Y-29120228D01*
X274230079Y-29120228D01*
X274224911Y-29120165D01*
X274004091Y-29153955D01*
X273791756Y-29223357D01*
X273593607Y-29326507D01*
X273589474Y-29329610D01*
X273589471Y-29329612D01*
X273565247Y-29347800D01*
X273414965Y-29460635D01*
X273260629Y-29622138D01*
X273153201Y-29779621D01*
X273098293Y-29824621D01*
X273027768Y-29832792D01*
X272964021Y-29801538D01*
X272943324Y-29777054D01*
X272862822Y-29652617D01*
X272862820Y-29652614D01*
X272860014Y-29648277D01*
X272709670Y-29483051D01*
X272705619Y-29479852D01*
X272705615Y-29479848D01*
X272538414Y-29347800D01*
X272538410Y-29347798D01*
X272534359Y-29344598D01*
X272338789Y-29236638D01*
X272333920Y-29234914D01*
X272333916Y-29234912D01*
X272133087Y-29163795D01*
X272133083Y-29163794D01*
X272128212Y-29162069D01*
X272123119Y-29161162D01*
X272123116Y-29161161D01*
X271913373Y-29123800D01*
X271913367Y-29123799D01*
X271908284Y-29122894D01*
X271834452Y-29121992D01*
X271690081Y-29120228D01*
X271690079Y-29120228D01*
X271684911Y-29120165D01*
X271464091Y-29153955D01*
X271251756Y-29223357D01*
X271053607Y-29326507D01*
X271049474Y-29329610D01*
X271049471Y-29329612D01*
X271025247Y-29347800D01*
X270874965Y-29460635D01*
X270720629Y-29622138D01*
X270613201Y-29779621D01*
X270558293Y-29824621D01*
X270487768Y-29832792D01*
X270424021Y-29801538D01*
X270403324Y-29777054D01*
X270322822Y-29652617D01*
X270322820Y-29652614D01*
X270320014Y-29648277D01*
X270169670Y-29483051D01*
X270165619Y-29479852D01*
X270165615Y-29479848D01*
X269998414Y-29347800D01*
X269998410Y-29347798D01*
X269994359Y-29344598D01*
X269798789Y-29236638D01*
X269793920Y-29234914D01*
X269793916Y-29234912D01*
X269593087Y-29163795D01*
X269593083Y-29163794D01*
X269588212Y-29162069D01*
X269583119Y-29161162D01*
X269583116Y-29161161D01*
X269373373Y-29123800D01*
X269373367Y-29123799D01*
X269368284Y-29122894D01*
X269294452Y-29121992D01*
X269150081Y-29120228D01*
X269150079Y-29120228D01*
X269144911Y-29120165D01*
X268924091Y-29153955D01*
X268711756Y-29223357D01*
X268513607Y-29326507D01*
X268509474Y-29329610D01*
X268509471Y-29329612D01*
X268485247Y-29347800D01*
X268334965Y-29460635D01*
X268180629Y-29622138D01*
X268073201Y-29779621D01*
X268018293Y-29824621D01*
X267947768Y-29832792D01*
X267884021Y-29801538D01*
X267863324Y-29777054D01*
X267782822Y-29652617D01*
X267782820Y-29652614D01*
X267780014Y-29648277D01*
X267629670Y-29483051D01*
X267625619Y-29479852D01*
X267625615Y-29479848D01*
X267458414Y-29347800D01*
X267458410Y-29347798D01*
X267454359Y-29344598D01*
X267258789Y-29236638D01*
X267253920Y-29234914D01*
X267253916Y-29234912D01*
X267053087Y-29163795D01*
X267053083Y-29163794D01*
X267048212Y-29162069D01*
X267043119Y-29161162D01*
X267043116Y-29161161D01*
X266833373Y-29123800D01*
X266833367Y-29123799D01*
X266828284Y-29122894D01*
X266754452Y-29121992D01*
X266610081Y-29120228D01*
X266610079Y-29120228D01*
X266604911Y-29120165D01*
X266384091Y-29153955D01*
X266171756Y-29223357D01*
X265973607Y-29326507D01*
X265969474Y-29329610D01*
X265969471Y-29329612D01*
X265945247Y-29347800D01*
X265794965Y-29460635D01*
X265640629Y-29622138D01*
X265533201Y-29779621D01*
X265478293Y-29824621D01*
X265407768Y-29832792D01*
X265344021Y-29801538D01*
X265323324Y-29777054D01*
X265242822Y-29652617D01*
X265242820Y-29652614D01*
X265240014Y-29648277D01*
X265089670Y-29483051D01*
X265085619Y-29479852D01*
X265085615Y-29479848D01*
X264918414Y-29347800D01*
X264918410Y-29347798D01*
X264914359Y-29344598D01*
X264718789Y-29236638D01*
X264713920Y-29234914D01*
X264713916Y-29234912D01*
X264513087Y-29163795D01*
X264513083Y-29163794D01*
X264508212Y-29162069D01*
X264503119Y-29161162D01*
X264503116Y-29161161D01*
X264293373Y-29123800D01*
X264293367Y-29123799D01*
X264288284Y-29122894D01*
X264214452Y-29121992D01*
X264070081Y-29120228D01*
X264070079Y-29120228D01*
X264064911Y-29120165D01*
X263844091Y-29153955D01*
X263631756Y-29223357D01*
X263433607Y-29326507D01*
X263429474Y-29329610D01*
X263429471Y-29329612D01*
X263405247Y-29347800D01*
X263254965Y-29460635D01*
X263100629Y-29622138D01*
X262993201Y-29779621D01*
X262938293Y-29824621D01*
X262867768Y-29832792D01*
X262804021Y-29801538D01*
X262783324Y-29777054D01*
X262702822Y-29652617D01*
X262702820Y-29652614D01*
X262700014Y-29648277D01*
X262549670Y-29483051D01*
X262545619Y-29479852D01*
X262545615Y-29479848D01*
X262378414Y-29347800D01*
X262378410Y-29347798D01*
X262374359Y-29344598D01*
X262178789Y-29236638D01*
X262173920Y-29234914D01*
X262173916Y-29234912D01*
X261973087Y-29163795D01*
X261973083Y-29163794D01*
X261968212Y-29162069D01*
X261963119Y-29161162D01*
X261963116Y-29161161D01*
X261753373Y-29123800D01*
X261753367Y-29123799D01*
X261748284Y-29122894D01*
X261674452Y-29121992D01*
X261530081Y-29120228D01*
X261530079Y-29120228D01*
X261524911Y-29120165D01*
X261304091Y-29153955D01*
X261091756Y-29223357D01*
X260893607Y-29326507D01*
X260889474Y-29329610D01*
X260889471Y-29329612D01*
X260865247Y-29347800D01*
X260714965Y-29460635D01*
X260560629Y-29622138D01*
X260453201Y-29779621D01*
X260398293Y-29824621D01*
X260327768Y-29832792D01*
X260264021Y-29801538D01*
X260243324Y-29777054D01*
X260162822Y-29652617D01*
X260162820Y-29652614D01*
X260160014Y-29648277D01*
X260009670Y-29483051D01*
X260005619Y-29479852D01*
X260005615Y-29479848D01*
X259838414Y-29347800D01*
X259838410Y-29347798D01*
X259834359Y-29344598D01*
X259638789Y-29236638D01*
X259633920Y-29234914D01*
X259633916Y-29234912D01*
X259433087Y-29163795D01*
X259433083Y-29163794D01*
X259428212Y-29162069D01*
X259423119Y-29161162D01*
X259423116Y-29161161D01*
X259213373Y-29123800D01*
X259213367Y-29123799D01*
X259208284Y-29122894D01*
X259134452Y-29121992D01*
X258990081Y-29120228D01*
X258990079Y-29120228D01*
X258984911Y-29120165D01*
X258764091Y-29153955D01*
X258551756Y-29223357D01*
X258353607Y-29326507D01*
X258349474Y-29329610D01*
X258349471Y-29329612D01*
X258325247Y-29347800D01*
X258174965Y-29460635D01*
X258020629Y-29622138D01*
X257894743Y-29806680D01*
X257800688Y-30009305D01*
X257740989Y-30224570D01*
X257717251Y-30446695D01*
X257717548Y-30451848D01*
X257717548Y-30451851D01*
X257723011Y-30546590D01*
X257730110Y-30669715D01*
X257731247Y-30674761D01*
X257731248Y-30674767D01*
X257774751Y-30867799D01*
X257770215Y-30938650D01*
X257728093Y-30995802D01*
X257661760Y-31021108D01*
X257651834Y-31021500D01*
X256759594Y-31021500D01*
X256691473Y-31001498D01*
X256670499Y-30984595D01*
X242901925Y-17216020D01*
X229103652Y-3417747D01*
X229096112Y-3409461D01*
X229092000Y-3402982D01*
X229042348Y-3356356D01*
X229039507Y-3353602D01*
X229019770Y-3333865D01*
X229016573Y-3331385D01*
X229007551Y-3323680D01*
X229003397Y-3319779D01*
X228975321Y-3293414D01*
X228968375Y-3289595D01*
X228968372Y-3289593D01*
X228957566Y-3283652D01*
X228941047Y-3272801D01*
X228940583Y-3272441D01*
X228925041Y-3260386D01*
X228917772Y-3257241D01*
X228917768Y-3257238D01*
X228884463Y-3242826D01*
X228873813Y-3237609D01*
X228835060Y-3216305D01*
X228815437Y-3211267D01*
X228796734Y-3204863D01*
X228785420Y-3199967D01*
X228785419Y-3199967D01*
X228778145Y-3196819D01*
X228770322Y-3195580D01*
X228770312Y-3195577D01*
X228734476Y-3189901D01*
X228722856Y-3187495D01*
X228687711Y-3178472D01*
X228687710Y-3178472D01*
X228680030Y-3176500D01*
X228659776Y-3176500D01*
X228640065Y-3174949D01*
X228627886Y-3173020D01*
X228620057Y-3171780D01*
X228590786Y-3174547D01*
X228576039Y-3175941D01*
X228564181Y-3176500D01*
X147398767Y-3176500D01*
X147387584Y-3175973D01*
X147380091Y-3174298D01*
X147372165Y-3174547D01*
X147372164Y-3174547D01*
X147312001Y-3176438D01*
X147308043Y-3176500D01*
X147280144Y-3176500D01*
X147276154Y-3177004D01*
X147264320Y-3177936D01*
X147220111Y-3179326D01*
X147212497Y-3181538D01*
X147212492Y-3181539D01*
X147200659Y-3184977D01*
X147181296Y-3188988D01*
X147161203Y-3191526D01*
X147153836Y-3194443D01*
X147153831Y-3194444D01*
X147120092Y-3207802D01*
X147108865Y-3211646D01*
X147066407Y-3223982D01*
X147059581Y-3228019D01*
X147048972Y-3234293D01*
X147031224Y-3242988D01*
X147012383Y-3250448D01*
X147005967Y-3255110D01*
X147005966Y-3255110D01*
X146976613Y-3276436D01*
X146966693Y-3282952D01*
X146935465Y-3301420D01*
X146935462Y-3301422D01*
X146928638Y-3305458D01*
X146914317Y-3319779D01*
X146899284Y-3332619D01*
X146882893Y-3344528D01*
X146874217Y-3355016D01*
X146854702Y-3378605D01*
X146846712Y-3387384D01*
X137617345Y-12616750D01*
X137555033Y-12650776D01*
X137506154Y-12651702D01*
X137293373Y-12613800D01*
X137293367Y-12613799D01*
X137288284Y-12612894D01*
X137214452Y-12611992D01*
X137070081Y-12610228D01*
X137070079Y-12610228D01*
X137064911Y-12610165D01*
X136844091Y-12643955D01*
X136631756Y-12713357D01*
X136433607Y-12816507D01*
X136429474Y-12819610D01*
X136429471Y-12819612D01*
X136405247Y-12837800D01*
X136254965Y-12950635D01*
X136100629Y-13112138D01*
X135993201Y-13269621D01*
X135938293Y-13314621D01*
X135867768Y-13322792D01*
X135804021Y-13291538D01*
X135783324Y-13267054D01*
X135702822Y-13142617D01*
X135702820Y-13142614D01*
X135700014Y-13138277D01*
X135549670Y-12973051D01*
X135545619Y-12969852D01*
X135545615Y-12969848D01*
X135378414Y-12837800D01*
X135378410Y-12837798D01*
X135374359Y-12834598D01*
X135178789Y-12726638D01*
X135173920Y-12724914D01*
X135173916Y-12724912D01*
X134973087Y-12653795D01*
X134973083Y-12653794D01*
X134968212Y-12652069D01*
X134963119Y-12651162D01*
X134963116Y-12651161D01*
X134753373Y-12613800D01*
X134753367Y-12613799D01*
X134748284Y-12612894D01*
X134674452Y-12611992D01*
X134530081Y-12610228D01*
X134530079Y-12610228D01*
X134524911Y-12610165D01*
X134304091Y-12643955D01*
X134091756Y-12713357D01*
X133893607Y-12816507D01*
X133889474Y-12819610D01*
X133889471Y-12819612D01*
X133865247Y-12837800D01*
X133714965Y-12950635D01*
X133560629Y-13112138D01*
X133434743Y-13296680D01*
X133340688Y-13499305D01*
X133280989Y-13714570D01*
X133257251Y-13936695D01*
X133270110Y-14159715D01*
X133271247Y-14164761D01*
X133271248Y-14164767D01*
X133295304Y-14271508D01*
X133319222Y-14377639D01*
X133403266Y-14584616D01*
X133452285Y-14664608D01*
X133517291Y-14770688D01*
X133519987Y-14775088D01*
X133666250Y-14943938D01*
X133670230Y-14947242D01*
X133674981Y-14951187D01*
X133714616Y-15010090D01*
X133716113Y-15081071D01*
X133678997Y-15141593D01*
X133638725Y-15166112D01*
X133550095Y-15199338D01*
X133523295Y-15209385D01*
X133406739Y-15296739D01*
X133319385Y-15413295D01*
X133268255Y-15549684D01*
X133261500Y-15611866D01*
X133261500Y-17408134D01*
X133268255Y-17470316D01*
X133319385Y-17606705D01*
X133406739Y-17723261D01*
X133523295Y-17810615D01*
X133659684Y-17861745D01*
X133721866Y-17868500D01*
X135518134Y-17868500D01*
X135580316Y-17861745D01*
X135716705Y-17810615D01*
X135833261Y-17723261D01*
X135920615Y-17606705D01*
X135940451Y-17553792D01*
X135964598Y-17489382D01*
X136007240Y-17432618D01*
X136073802Y-17407918D01*
X136143150Y-17423126D01*
X136177817Y-17451114D01*
X136206250Y-17483938D01*
X136378126Y-17626632D01*
X136571000Y-17739338D01*
X136575825Y-17741180D01*
X136575826Y-17741181D01*
X136618724Y-17757562D01*
X136779692Y-17819030D01*
X136784760Y-17820061D01*
X136784763Y-17820062D01*
X136879862Y-17839410D01*
X136998597Y-17863567D01*
X137003772Y-17863757D01*
X137003774Y-17863757D01*
X137216673Y-17871564D01*
X137216677Y-17871564D01*
X137221837Y-17871753D01*
X137226957Y-17871097D01*
X137226959Y-17871097D01*
X137438288Y-17844025D01*
X137438289Y-17844025D01*
X137443416Y-17843368D01*
X137448367Y-17841883D01*
X137448370Y-17841882D01*
X137539293Y-17814604D01*
X137610288Y-17814188D01*
X137670239Y-17852220D01*
X137700110Y-17916627D01*
X137701500Y-17935290D01*
X137701500Y-29036233D01*
X137700973Y-29047417D01*
X137699298Y-29054909D01*
X137699547Y-29062836D01*
X137699478Y-29063568D01*
X137673154Y-29129504D01*
X137615362Y-29170742D01*
X137544449Y-29174188D01*
X137531980Y-29170485D01*
X137513089Y-29163796D01*
X137508212Y-29162069D01*
X137503119Y-29161162D01*
X137503116Y-29161161D01*
X137293373Y-29123800D01*
X137293367Y-29123799D01*
X137288284Y-29122894D01*
X137214452Y-29121992D01*
X137070081Y-29120228D01*
X137070079Y-29120228D01*
X137064911Y-29120165D01*
X136844091Y-29153955D01*
X136631756Y-29223357D01*
X136433607Y-29326507D01*
X136429474Y-29329610D01*
X136429471Y-29329612D01*
X136405247Y-29347800D01*
X136254965Y-29460635D01*
X136100629Y-29622138D01*
X135993201Y-29779621D01*
X135938293Y-29824621D01*
X135867768Y-29832792D01*
X135804021Y-29801538D01*
X135783324Y-29777054D01*
X135702822Y-29652617D01*
X135702820Y-29652614D01*
X135700014Y-29648277D01*
X135549670Y-29483051D01*
X135545619Y-29479852D01*
X135545615Y-29479848D01*
X135378414Y-29347800D01*
X135378410Y-29347798D01*
X135374359Y-29344598D01*
X135178789Y-29236638D01*
X135173920Y-29234914D01*
X135173916Y-29234912D01*
X134973087Y-29163795D01*
X134973083Y-29163794D01*
X134968212Y-29162069D01*
X134963119Y-29161162D01*
X134963116Y-29161161D01*
X134753373Y-29123800D01*
X134753367Y-29123799D01*
X134748284Y-29122894D01*
X134674452Y-29121992D01*
X134530081Y-29120228D01*
X134530079Y-29120228D01*
X134524911Y-29120165D01*
X134304091Y-29153955D01*
X134091756Y-29223357D01*
X133893607Y-29326507D01*
X133889474Y-29329610D01*
X133889471Y-29329612D01*
X133865247Y-29347800D01*
X133714965Y-29460635D01*
X133560629Y-29622138D01*
X133434743Y-29806680D01*
X133340688Y-30009305D01*
X133280989Y-30224570D01*
X133257251Y-30446695D01*
X133257548Y-30451848D01*
X133257548Y-30451851D01*
X133263011Y-30546590D01*
X133270110Y-30669715D01*
X133271247Y-30674761D01*
X133271248Y-30674767D01*
X133314751Y-30867799D01*
X133310215Y-30938650D01*
X133268093Y-30995802D01*
X133201760Y-31021108D01*
X133191834Y-31021500D01*
X132299595Y-31021500D01*
X132231474Y-31001498D01*
X132210500Y-30984595D01*
X118613652Y-17387747D01*
X118606112Y-17379461D01*
X118602000Y-17372982D01*
X118552348Y-17326356D01*
X118549507Y-17323602D01*
X118529770Y-17303865D01*
X118526573Y-17301385D01*
X118517551Y-17293680D01*
X118504116Y-17281064D01*
X118485321Y-17263414D01*
X118478375Y-17259595D01*
X118478372Y-17259593D01*
X118467566Y-17253652D01*
X118451047Y-17242801D01*
X118450583Y-17242441D01*
X118435041Y-17230386D01*
X118427772Y-17227241D01*
X118427768Y-17227238D01*
X118394463Y-17212826D01*
X118383813Y-17207609D01*
X118345060Y-17186305D01*
X118325437Y-17181267D01*
X118306734Y-17174863D01*
X118295420Y-17169967D01*
X118295419Y-17169967D01*
X118288145Y-17166819D01*
X118280322Y-17165580D01*
X118280312Y-17165577D01*
X118244476Y-17159901D01*
X118232856Y-17157495D01*
X118197711Y-17148472D01*
X118197710Y-17148472D01*
X118190030Y-17146500D01*
X118169776Y-17146500D01*
X118150065Y-17144949D01*
X118141681Y-17143621D01*
X118130057Y-17141780D01*
X118100786Y-17144547D01*
X118086039Y-17145941D01*
X118074181Y-17146500D01*
X104454595Y-17146500D01*
X104386474Y-17126498D01*
X104365500Y-17109595D01*
X97915405Y-10659500D01*
X97881379Y-10597188D01*
X97878500Y-10570405D01*
X97878500Y-9261866D01*
X97871745Y-9199684D01*
X97820615Y-9063295D01*
X97733261Y-8946739D01*
X97616705Y-8859385D01*
X97480316Y-8808255D01*
X97418134Y-8801500D01*
X95621866Y-8801500D01*
X95559684Y-8808255D01*
X95423295Y-8859385D01*
X95306739Y-8946739D01*
X95219385Y-9063295D01*
X95216233Y-9071703D01*
X95174919Y-9181907D01*
X95132277Y-9238671D01*
X95065716Y-9263371D01*
X94996367Y-9248163D01*
X94963743Y-9222476D01*
X94913151Y-9166875D01*
X94913142Y-9166866D01*
X94909670Y-9163051D01*
X94905619Y-9159852D01*
X94905615Y-9159848D01*
X94738414Y-9027800D01*
X94738410Y-9027798D01*
X94734359Y-9024598D01*
X94538789Y-8916638D01*
X94533920Y-8914914D01*
X94533916Y-8914912D01*
X94333087Y-8843795D01*
X94333083Y-8843794D01*
X94328212Y-8842069D01*
X94323119Y-8841162D01*
X94323116Y-8841161D01*
X94113373Y-8803800D01*
X94113367Y-8803799D01*
X94108284Y-8802894D01*
X94034452Y-8801992D01*
X93890081Y-8800228D01*
X93890079Y-8800228D01*
X93884911Y-8800165D01*
X93664091Y-8833955D01*
X93451756Y-8903357D01*
X93253607Y-9006507D01*
X93249474Y-9009610D01*
X93249471Y-9009612D01*
X93079100Y-9137530D01*
X93074965Y-9140635D01*
X93035525Y-9181907D01*
X92981280Y-9238671D01*
X92920629Y-9302138D01*
X92794743Y-9486680D01*
X92700688Y-9689305D01*
X92640989Y-9904570D01*
X92617251Y-10126695D01*
X92630110Y-10349715D01*
X92631247Y-10354761D01*
X92631248Y-10354767D01*
X92663453Y-10497668D01*
X92658917Y-10568520D01*
X92629631Y-10614464D01*
X86134500Y-17109595D01*
X86072188Y-17143621D01*
X86045405Y-17146500D01*
X25478767Y-17146500D01*
X25467584Y-17145973D01*
X25460091Y-17144298D01*
X25452165Y-17144547D01*
X25452164Y-17144547D01*
X25392014Y-17146438D01*
X25388055Y-17146500D01*
X25360144Y-17146500D01*
X25356210Y-17146997D01*
X25356209Y-17146997D01*
X25356144Y-17147005D01*
X25344307Y-17147938D01*
X25312490Y-17148938D01*
X25308029Y-17149078D01*
X25300110Y-17149327D01*
X25282454Y-17154456D01*
X25280658Y-17154978D01*
X25261306Y-17158986D01*
X25254235Y-17159880D01*
X25241203Y-17161526D01*
X25233834Y-17164443D01*
X25233832Y-17164444D01*
X25200097Y-17177800D01*
X25188869Y-17181645D01*
X25146407Y-17193982D01*
X25139585Y-17198016D01*
X25139579Y-17198019D01*
X25128968Y-17204294D01*
X25111218Y-17212990D01*
X25099756Y-17217528D01*
X25099751Y-17217531D01*
X25092383Y-17220448D01*
X25074970Y-17233099D01*
X25056625Y-17246427D01*
X25046707Y-17252943D01*
X25035463Y-17259593D01*
X25008637Y-17275458D01*
X24994313Y-17289782D01*
X24979281Y-17302621D01*
X24962893Y-17314528D01*
X24934712Y-17348593D01*
X24926722Y-17357373D01*
X13157345Y-29126750D01*
X13095033Y-29160776D01*
X13046154Y-29161702D01*
X12833373Y-29123800D01*
X12833367Y-29123799D01*
X12828284Y-29122894D01*
X12754452Y-29121992D01*
X12610081Y-29120228D01*
X12610079Y-29120228D01*
X12604911Y-29120165D01*
X12384091Y-29153955D01*
X12171756Y-29223357D01*
X11973607Y-29326507D01*
X11969474Y-29329610D01*
X11969471Y-29329612D01*
X11945247Y-29347800D01*
X11794965Y-29460635D01*
X11640629Y-29622138D01*
X11533201Y-29779621D01*
X11478293Y-29824621D01*
X11407768Y-29832792D01*
X11344021Y-29801538D01*
X11323324Y-29777054D01*
X11242822Y-29652617D01*
X11242820Y-29652614D01*
X11240014Y-29648277D01*
X11089670Y-29483051D01*
X11085619Y-29479852D01*
X11085615Y-29479848D01*
X10918414Y-29347800D01*
X10918410Y-29347798D01*
X10914359Y-29344598D01*
X10718789Y-29236638D01*
X10713920Y-29234914D01*
X10713916Y-29234912D01*
X10513087Y-29163795D01*
X10513083Y-29163794D01*
X10508212Y-29162069D01*
X10503119Y-29161162D01*
X10503116Y-29161161D01*
X10293373Y-29123800D01*
X10293367Y-29123799D01*
X10288284Y-29122894D01*
X10214452Y-29121992D01*
X10070081Y-29120228D01*
X10070079Y-29120228D01*
X10064911Y-29120165D01*
X9844091Y-29153955D01*
X9631756Y-29223357D01*
X9433607Y-29326507D01*
X9429474Y-29329610D01*
X9429471Y-29329612D01*
X9405247Y-29347800D01*
X9254965Y-29460635D01*
X9100629Y-29622138D01*
X8974743Y-29806680D01*
X8880688Y-30009305D01*
X8820989Y-30224570D01*
X8797251Y-30446695D01*
X508500Y-30446695D01*
X508500Y-3830289D01*
X528502Y-3762168D01*
X582158Y-3715675D01*
X652432Y-3705571D01*
X717012Y-3735065D01*
X738340Y-3758922D01*
X831353Y-3894257D01*
X1030956Y-4113617D01*
X1034245Y-4116367D01*
X1255190Y-4301106D01*
X1255195Y-4301110D01*
X1258482Y-4303858D01*
X1384102Y-4382659D01*
X1506082Y-4459178D01*
X1506086Y-4459180D01*
X1509722Y-4461461D01*
X1513632Y-4463226D01*
X1513633Y-4463227D01*
X1776114Y-4581742D01*
X1776118Y-4581744D01*
X1780026Y-4583508D01*
X1920153Y-4625016D01*
X1941286Y-4631276D01*
X2000921Y-4669802D01*
X2030260Y-4734453D01*
X2031500Y-4752087D01*
X2031500Y-5076513D01*
X2046920Y-5184187D01*
X2107208Y-5316782D01*
X2202287Y-5427127D01*
X2324515Y-5506352D01*
X2464066Y-5548086D01*
X2473042Y-5548141D01*
X2473043Y-5548141D01*
X2534356Y-5548515D01*
X2609721Y-5548976D01*
X2749771Y-5508949D01*
X2872958Y-5431224D01*
X2969378Y-5322049D01*
X3031281Y-5190200D01*
X3048500Y-5079614D01*
X3048500Y-4752615D01*
X3068502Y-4684494D01*
X3122158Y-4638001D01*
X3142526Y-4630739D01*
X3204318Y-4614528D01*
X3235411Y-4606371D01*
X3239371Y-4604731D01*
X3239376Y-4604729D01*
X3421723Y-4529198D01*
X3509415Y-4492875D01*
X3520659Y-4486305D01*
X3761784Y-4345403D01*
X3761785Y-4345402D01*
X3765482Y-4343242D01*
X3812799Y-4306141D01*
X3995499Y-4162885D01*
X3998871Y-4160241D01*
X4205266Y-3947258D01*
X4207799Y-3943810D01*
X4207803Y-3943805D01*
X4362876Y-3732697D01*
X4380845Y-3708236D01*
X4452223Y-3576775D01*
X4520311Y-3451372D01*
X4520312Y-3451370D01*
X4522361Y-3447596D01*
X4574778Y-3308878D01*
X4625677Y-3174179D01*
X4625678Y-3174175D01*
X4627195Y-3170161D01*
X4632644Y-3146369D01*
X4667351Y-3084433D01*
X4730032Y-3051093D01*
X4755464Y-3048500D01*
X5076513Y-3048500D01*
X5118839Y-3042438D01*
X5175294Y-3034354D01*
X5175297Y-3034353D01*
X5184187Y-3033080D01*
X5192363Y-3029363D01*
X5192365Y-3029362D01*
X5308610Y-2976508D01*
X5308612Y-2976507D01*
X5316782Y-2972792D01*
X5427127Y-2877713D01*
X5506352Y-2755485D01*
X5548086Y-2615934D01*
X5548976Y-2470279D01*
X5508949Y-2330229D01*
X5431224Y-2207042D01*
X5322049Y-2110622D01*
X5313926Y-2106808D01*
X5313924Y-2106807D01*
X5250013Y-2076801D01*
X5190200Y-2048719D01*
X5181335Y-2047339D01*
X5181333Y-2047338D01*
X5112254Y-2036582D01*
X5079614Y-2031500D01*
X4756537Y-2031500D01*
X4688416Y-2011498D01*
X4641923Y-1957842D01*
X4637764Y-1947560D01*
X4595247Y-1827495D01*
X4540934Y-1674119D01*
X4404907Y-1410572D01*
X4393894Y-1394901D01*
X4236835Y-1171430D01*
X4234372Y-1167925D01*
X4032483Y-950667D01*
X4029168Y-947953D01*
X4029164Y-947950D01*
X3806295Y-765534D01*
X3802977Y-762818D01*
X3799330Y-760583D01*
X3799313Y-760571D01*
X3768896Y-741932D01*
X3721265Y-689285D01*
X3709658Y-619243D01*
X3737761Y-554046D01*
X3796652Y-514392D01*
X3834731Y-508500D01*
X288262816Y-508500D01*
X288330937Y-528502D01*
G37*
%TD.AperFunction*%
%TA.AperFunction,Conductor*%
G36*
X155518621Y-32786002D02*
G01*
X155565114Y-32839658D01*
X155576500Y-32892000D01*
X155576500Y-33148000D01*
X155556498Y-33216121D01*
X155502842Y-33262614D01*
X155450500Y-33274000D01*
X155212115Y-33274000D01*
X155196876Y-33278475D01*
X155195671Y-33279865D01*
X155194000Y-33287548D01*
X155194000Y-34356632D01*
X155189185Y-34356632D01*
X155189178Y-34393140D01*
X155157384Y-34446712D01*
X145824500Y-43779595D01*
X145762188Y-43813621D01*
X145735405Y-43816500D01*
X145322449Y-43816500D01*
X145254328Y-43796498D01*
X145207835Y-43742842D01*
X145197731Y-43672568D01*
X145227225Y-43607988D01*
X145258309Y-43582047D01*
X145278631Y-43570028D01*
X145296362Y-43559542D01*
X145310683Y-43545221D01*
X145325717Y-43532380D01*
X145327432Y-43531134D01*
X145342107Y-43520472D01*
X145370298Y-43486395D01*
X145378288Y-43477616D01*
X154062253Y-34793652D01*
X154070539Y-34786112D01*
X154077018Y-34782000D01*
X154123644Y-34732348D01*
X154126398Y-34729507D01*
X154146135Y-34709770D01*
X154148615Y-34706573D01*
X154156320Y-34697551D01*
X154181159Y-34671100D01*
X154186586Y-34665321D01*
X154190405Y-34658375D01*
X154190407Y-34658372D01*
X154196348Y-34647566D01*
X154207199Y-34631047D01*
X154207559Y-34630583D01*
X154219614Y-34615041D01*
X154222759Y-34607772D01*
X154222762Y-34607768D01*
X154237174Y-34574463D01*
X154242391Y-34563812D01*
X154263695Y-34525060D01*
X154265668Y-34517378D01*
X154268733Y-34505438D01*
X154275137Y-34486734D01*
X154280033Y-34475420D01*
X154280034Y-34475417D01*
X154283181Y-34468145D01*
X154284421Y-34460318D01*
X154284423Y-34460312D01*
X154290099Y-34424476D01*
X154292505Y-34412855D01*
X154300980Y-34379846D01*
X154337294Y-34318839D01*
X154400826Y-34287150D01*
X154467971Y-34293470D01*
X154555001Y-34326703D01*
X154564899Y-34329579D01*
X154668250Y-34350606D01*
X154682299Y-34349410D01*
X154686000Y-34339065D01*
X154686000Y-32892000D01*
X154706002Y-32823879D01*
X154759658Y-32777386D01*
X154812000Y-32766000D01*
X155450500Y-32766000D01*
X155518621Y-32786002D01*
G37*
%TD.AperFunction*%
%TA.AperFunction,Conductor*%
G36*
X279978621Y-32786002D02*
G01*
X280025114Y-32839658D01*
X280036500Y-32892000D01*
X280036500Y-33148000D01*
X280016498Y-33216121D01*
X279962842Y-33262614D01*
X279910500Y-33274000D01*
X279672115Y-33274000D01*
X279656876Y-33278475D01*
X279655671Y-33279865D01*
X279654000Y-33287548D01*
X279654000Y-34356632D01*
X279649185Y-34356632D01*
X279649178Y-34393140D01*
X279617384Y-34446712D01*
X270284500Y-43779595D01*
X270222188Y-43813621D01*
X270195405Y-43816500D01*
X269782449Y-43816500D01*
X269714328Y-43796498D01*
X269667835Y-43742842D01*
X269657731Y-43672568D01*
X269687225Y-43607988D01*
X269718309Y-43582047D01*
X269738631Y-43570028D01*
X269756362Y-43559542D01*
X269770683Y-43545221D01*
X269785717Y-43532380D01*
X269787432Y-43531134D01*
X269802107Y-43520472D01*
X269830298Y-43486395D01*
X269838288Y-43477616D01*
X278522253Y-34793652D01*
X278530539Y-34786112D01*
X278537018Y-34782000D01*
X278583644Y-34732348D01*
X278586398Y-34729507D01*
X278606135Y-34709770D01*
X278608615Y-34706573D01*
X278616320Y-34697551D01*
X278641159Y-34671100D01*
X278646586Y-34665321D01*
X278650405Y-34658375D01*
X278650407Y-34658372D01*
X278656348Y-34647566D01*
X278667199Y-34631047D01*
X278667559Y-34630583D01*
X278679614Y-34615041D01*
X278682759Y-34607772D01*
X278682762Y-34607768D01*
X278697174Y-34574463D01*
X278702391Y-34563812D01*
X278723695Y-34525060D01*
X278725668Y-34517378D01*
X278728733Y-34505438D01*
X278735137Y-34486734D01*
X278740033Y-34475420D01*
X278740034Y-34475417D01*
X278743181Y-34468145D01*
X278744421Y-34460318D01*
X278744423Y-34460312D01*
X278750099Y-34424476D01*
X278752505Y-34412855D01*
X278760980Y-34379846D01*
X278797294Y-34318839D01*
X278860826Y-34287150D01*
X278927971Y-34293470D01*
X279015001Y-34326703D01*
X279024899Y-34329579D01*
X279128250Y-34350606D01*
X279142299Y-34349410D01*
X279146000Y-34339065D01*
X279146000Y-32892000D01*
X279166002Y-32823879D01*
X279219658Y-32777386D01*
X279272000Y-32766000D01*
X279910500Y-32766000D01*
X279978621Y-32786002D01*
G37*
%TD.AperFunction*%
%TA.AperFunction,Conductor*%
G36*
X155423621Y-16276002D02*
G01*
X155470114Y-16329658D01*
X155481500Y-16382000D01*
X155481500Y-16638000D01*
X155461498Y-16706121D01*
X155407842Y-16752614D01*
X155355500Y-16764000D01*
X155212115Y-16764000D01*
X155196876Y-16768475D01*
X155195671Y-16769865D01*
X155194000Y-16777548D01*
X155194000Y-17828517D01*
X155198064Y-17842359D01*
X155211478Y-17844393D01*
X155218184Y-17843534D01*
X155228266Y-17841391D01*
X155319293Y-17814082D01*
X155390288Y-17813666D01*
X155450239Y-17851698D01*
X155480110Y-17916105D01*
X155481500Y-17934768D01*
X155481500Y-29036233D01*
X155480973Y-29047417D01*
X155479298Y-29054909D01*
X155479547Y-29062836D01*
X155479478Y-29063568D01*
X155453154Y-29129504D01*
X155395362Y-29170742D01*
X155324449Y-29174188D01*
X155311980Y-29170485D01*
X155293089Y-29163796D01*
X155288212Y-29162069D01*
X155283119Y-29161162D01*
X155283116Y-29161161D01*
X155073373Y-29123800D01*
X155073367Y-29123799D01*
X155068284Y-29122894D01*
X154994452Y-29121992D01*
X154850081Y-29120228D01*
X154850079Y-29120228D01*
X154844911Y-29120165D01*
X154624091Y-29153955D01*
X154611532Y-29158060D01*
X154540568Y-29160210D01*
X154483294Y-29127389D01*
X154245405Y-28889500D01*
X154211379Y-28827188D01*
X154208500Y-28800405D01*
X154208500Y-17867377D01*
X154228502Y-17799256D01*
X154282158Y-17752763D01*
X154352432Y-17742659D01*
X154379449Y-17749667D01*
X154555001Y-17816703D01*
X154564899Y-17819579D01*
X154668250Y-17840606D01*
X154682299Y-17839410D01*
X154686000Y-17829065D01*
X154686000Y-16382000D01*
X154706002Y-16313879D01*
X154759658Y-16267386D01*
X154812000Y-16256000D01*
X155355500Y-16256000D01*
X155423621Y-16276002D01*
G37*
%TD.AperFunction*%
%TD*%
M02*
