M48
; DRILL file {KiCad (6.0.10)} date Mon 26 Dec 2022 06:19:15 PM CET
; FORMAT={-:-/ absolute / metric / decimal}
; #@! TF.CreationDate,2022-12-26T18:19:15+01:00
; #@! TF.GenerationSoftware,Kicad,Pcbnew,(6.0.10)
; #@! TF.FileFunction,Plated,1,2,PTH
FMAT,2
METRIC
; #@! TA.AperFunction,Plated,PTH,ComponentDrill
T1C1.000
%
G90
G05
T1
X10.16Y-30.48
X10.16Y-33.02
X12.7Y-30.48
X12.7Y-33.02
X15.24Y-30.48
X15.24Y-33.02
X17.78Y-30.48
X17.78Y-33.02
X20.32Y-30.48
X20.32Y-33.02
X22.86Y-30.48
X22.86Y-33.02
X25.4Y-30.48
X25.4Y-33.02
X27.94Y-30.48
X27.94Y-33.02
X30.48Y-30.48
X30.48Y-33.02
X33.02Y-30.48
X33.02Y-33.02
X93.98Y-10.16
X96.52Y-10.16
X134.62Y-13.97
X134.62Y-16.51
X134.62Y-30.48
X134.62Y-33.02
X137.16Y-13.97
X137.16Y-16.51
X137.16Y-30.48
X137.16Y-33.02
X139.7Y-13.97
X139.7Y-16.51
X139.7Y-30.48
X139.7Y-33.02
X142.24Y-13.97
X142.24Y-16.51
X142.24Y-30.48
X142.24Y-33.02
X144.78Y-13.97
X144.78Y-16.51
X144.78Y-30.48
X144.78Y-33.02
X147.32Y-13.97
X147.32Y-16.51
X147.32Y-30.48
X147.32Y-33.02
X149.86Y-13.97
X149.86Y-16.51
X149.86Y-30.48
X149.86Y-33.02
X152.4Y-13.97
X152.4Y-16.51
X152.4Y-30.48
X152.4Y-33.02
X154.94Y-13.97
X154.94Y-16.51
X154.94Y-30.48
X154.94Y-33.02
X157.48Y-13.97
X157.48Y-16.51
X157.48Y-30.48
X157.48Y-33.02
X259.08Y-30.48
X259.08Y-33.02
X261.62Y-30.48
X261.62Y-33.02
X264.16Y-30.48
X264.16Y-33.02
X266.7Y-30.48
X266.7Y-33.02
X269.24Y-30.48
X269.24Y-33.02
X271.78Y-30.48
X271.78Y-33.02
X274.32Y-30.48
X274.32Y-33.02
X276.86Y-30.48
X276.86Y-33.02
X279.4Y-30.48
X279.4Y-33.02
X281.94Y-30.48
X281.94Y-33.02
T0
M30
